<svg width="38" height="40" viewBox="0 0 38 40" fill="none" xmlns="http://www.w3.org/2000/svg">
    <g filter="url(#filter0_dd)">
        <path d="M24.2418 2.31927C23.979 0.997865 22.8381 0 21.4734 0C21.1615 0 20.9083 0.259178 20.9083 0.579817C20.9083 0.900456 21.1615 1.15963 21.4734 1.15963C22.4081 1.15963 23.1687 1.94007 23.1687 2.89908C23.1687 3.8581 22.4081 4.63854 21.4734 4.63854C21.1615 4.63854 20.9083 4.89771 20.9083 5.21835C20.9083 5.53899 21.1615 5.79817 21.4734 5.79817C22.8375 5.79817 23.979 4.8003 24.2418 3.4789H31.645V8.69725H1.13018V3.4789H9.04143H10.7367C11.0486 3.4789 11.3018 3.21972 11.3018 2.89908C11.3018 2.57845 11.0486 2.31927 10.7367 2.31927H9.7105C9.94444 1.64552 10.566 1.15963 11.3018 1.15963C12.2364 1.15963 12.9971 1.94007 12.9971 2.89908C12.9971 3.8581 12.2364 4.63854 11.3018 4.63854C10.9899 4.63854 10.7367 4.89771 10.7367 5.21835C10.7367 5.53899 10.9899 5.79817 11.3018 5.79817C12.8597 5.79817 14.1272 4.49764 14.1272 2.89908C14.1272 1.30053 12.8597 0 11.3018 0C9.93766 0 8.79618 0.997865 8.53341 2.31927H0V9.85689V33.0496H32.7752V9.85689V2.31927H24.2418ZM31.645 31.8899H1.13018V9.85689H31.645V31.8899Z" transform="translate(2.30544 2.4501)" fill="#595555"/>
        <path d="M0.56509 1.15963C1.49975 1.15963 2.26036 1.94006 2.26036 2.89908C2.26036 3.85809 1.49975 4.63853 0.56509 4.63853C0.25316 4.63853 0 4.8977 0 5.21834C0 5.53898 0.25316 5.79816 0.56509 5.79816C2.12304 5.79816 3.39054 4.49763 3.39054 2.89908C3.39054 1.30053 2.12304 0 0.56509 0C0.25316 0 0 0.259178 0 0.579816C0 0.900454 0.25316 1.15963 0.56509 1.15963Z" transform="translate(16.4327 2.4501)" fill="#595555"/>
        <path d="M0.56509 1.15963C1.49975 1.15963 2.26036 1.94006 2.26036 2.89908C2.26036 3.85809 1.49975 4.63853 0.56509 4.63853C0.25316 4.63853 0 4.8977 0 5.21834C0 5.53898 0.25316 5.79816 0.56509 5.79816C2.12304 5.79816 3.39054 4.49763 3.39054 2.89908C3.39054 1.30053 2.12304 0 0.56509 0C0.25316 0 0 0.259178 0 0.579816C0 0.900454 0.25316 1.15963 0.56509 1.15963Z" transform="translate(19.8232 2.4501)" fill="#595555"/>
        <path d="M0.565089 1.15967H12.9971C13.309 1.15967 13.5621 0.900482 13.5621 0.579834C13.5621 0.259186 13.309 0 12.9971 0H0.565089C0.25316 0 0 0.259186 0 0.579834C0 0.900482 0.25316 1.15967 0.565089 1.15967Z" transform="translate(6.82614 15.7859)" fill="#595555"/>
        <path d="M9.04143 0H0.56509C0.25316 0 0 0.259186 0 0.579834C0 0.900482 0.25316 1.15967 0.56509 1.15967H9.04143C9.35336 1.15967 9.60652 0.900482 9.60652 0.579834C9.60652 0.259186 9.35336 0 9.04143 0Z" transform="translate(20.9534 25.0629)" fill="#595555"/>
        <path d="M0.565089 1.15961H6.21598C6.52791 1.15961 6.78107 0.900435 6.78107 0.579803C6.78107 0.259172 6.52791 0 6.21598 0H0.565089C0.25316 0 0 0.259172 0 0.579803C0 0.900435 0.25316 1.15961 0.565089 1.15961Z" transform="translate(6.82614 20.4244)" fill="#595555"/>
        <path d="M6.21598 0H0.56509C0.25316 0 0 0.259172 0 0.579803C0 0.900435 0.25316 1.15961 0.56509 1.15961H6.21598C6.52791 1.15961 6.78107 0.900435 6.78107 0.579803C6.78107 0.259172 6.52791 0 6.21598 0Z" transform="translate(23.7788 29.7015)" fill="#595555"/>
        <path d="M0 0.579803C0 0.900435 0.25316 1.15961 0.565089 1.15961H9.04143C9.35336 1.15961 9.60652 0.900435 9.60652 0.579803C9.60652 0.259172 9.35336 0 9.04143 0H0.565089C0.25316 0 0 0.259172 0 0.579803Z" transform="translate(18.1279 20.4244)" fill="#595555"/>
        <path d="M0.966304 0.984229C1.06802 0.874065 1.13018 0.723314 1.13018 0.572563C1.13018 0.421233 1.06802 0.270482 0.966304 0.160898C0.75722 -0.053632 0.37296 -0.053632 0.163877 0.160898C0.0621604 0.270482 0 0.421233 0 0.572563C0 0.723314 0.0621604 0.874065 0.163877 0.984229C0.271244 1.09381 0.418167 1.15237 0.56509 1.15237C0.712014 1.15237 0.858937 1.09381 0.966304 0.984229Z" transform="translate(15.3025 20.4317)" fill="#595555"/>
        <path d="M0 0.579834C0 0.900482 0.25316 1.15967 0.565089 1.15967H9.04143C9.35336 1.15967 9.60652 0.900482 9.60652 0.579834C9.60652 0.259186 9.35336 0 9.04143 0H0.565089C0.25316 0 0 0.259186 0 0.579834Z" transform="translate(9.6516 25.0629)" fill="#595555"/>
        <path d="M0.56509 1.15167C0.712013 1.15167 0.858936 1.08789 0.966303 0.983524C1.06802 0.873359 1.13018 0.722606 1.13018 0.571854C1.13018 0.420521 1.06802 0.269767 0.966303 0.16598C0.75722 -0.0543512 0.372959 -0.0543502 0.163876 0.160183C0.0621598 0.269768 0 0.420521 0 0.571854C0 0.722606 0.0621598 0.873359 0.163876 0.983524C0.271243 1.08789 0.412515 1.15167 0.56509 1.15167Z" transform="translate(6.82614 25.0709)" fill="#595555"/>
        <path d="M0.56509 1.15237C0.712014 1.15237 0.858937 1.09381 0.966304 0.984229C1.07367 0.874065 1.13018 0.723314 1.13018 0.572563C1.13018 0.421233 1.07367 0.270482 0.966304 0.160898C0.751569 -0.053632 0.37296 -0.053632 0.163877 0.160898C0.0621604 0.270482 0 0.421233 0 0.572563C0 0.723314 0.0621604 0.874065 0.163877 0.984229C0.271244 1.09381 0.418167 1.15237 0.56509 1.15237Z" transform="translate(29.4297 20.4317)" fill="#595555"/>
        <path d="M14.6923 0H0.565089C0.25316 0 0 0.259172 0 0.579803C0 0.900435 0.25316 1.15961 0.565089 1.15961H14.6923C15.0043 1.15961 15.2574 0.900435 15.2574 0.579803C15.2574 0.259172 15.0043 0 14.6923 0Z" transform="translate(6.82614 29.7015)" fill="#595555"/>
    </g>
    <defs>
        <filter id="filter0_dd" x="0.305435" y="0.450104" width="36.7752" height="39.0496" filterUnits="userSpaceOnUse" color-interpolation-filters="sRGB">
            <feFlood flood-opacity="0" result="BackgroundImageFix"/>
            <feColorMatrix in="SourceAlpha" type="matrix" values="0 0 0 0 0 0 0 0 0 0 0 0 0 0 0 0 0 0 255 0"/>
            <feOffset dy="2"/>
            <feGaussianBlur stdDeviation="1"/>
            <feColorMatrix type="matrix" values="0 0 0 0 0 0 0 0 0 0 0 0 0 0 0 0 0 0 0.25 0"/>
            <feBlend mode="normal" in2="BackgroundImageFix" result="effect1_dropShadow"/>
            <feColorMatrix in="SourceAlpha" type="matrix" values="0 0 0 0 0 0 0 0 0 0 0 0 0 0 0 0 0 0 255 0"/>
            <feOffset/>
            <feGaussianBlur stdDeviation="1"/>
            <feColorMatrix type="matrix" values="0 0 0 0 0 0 0 0 0 0 0 0 0 0 0 0 0 0 0.12 0"/>
            <feBlend mode="normal" in2="effect1_dropShadow" result="effect2_dropShadow"/>
            <feBlend mode="normal" in="SourceGraphic" in2="effect2_dropShadow" result="shape"/>
        </filter>
    </defs>
</svg>
