<svg width="39" height="39" viewBox="0 0 39 39" fill="none" xmlns="http://www.w3.org/2000/svg">
    <g filter="url(#filter0_d)">
        <path d="M1.00016 0.171679C0.891234 0.0626366 0.740058 4.14848e-07 0.585952 4.14848e-07C0.431847 4.14848e-07 0.280671 0.0626366 0.171684 0.171679C0.0626968 0.280722 -9.6562e-08 0.431836 -9.6562e-08 0.585937C-9.6562e-08 0.740038 0.0626382 0.89121 0.171684 1.00014C0.280671 1.10912 0.431847 1.17187 0.585952 1.17187C0.740058 1.17187 0.891234 1.10918 1.00016 1.00014C1.10915 0.89121 1.1719 0.740038 1.1719 0.585937C1.1719 0.431836 1.10921 0.280664 1.00016 0.171679Z" transform="translate(8.84045 27.3489)" fill="#595555"/>
        <path d="M1.00022 0.17168C0.891233 0.0626368 0.740644 -2.57492e-07 0.585953 -2.57492e-07C0.431847 -2.57492e-07 0.280671 0.0626368 0.171684 0.17168C0.0627557 0.280664 5.86525e-07 0.431835 5.86525e-07 0.585936C5.86525e-07 0.740037 0.0626971 0.891209 0.171684 1.00013C0.280671 1.10912 0.431847 1.17187 0.585953 1.17187C0.740644 1.17187 0.891233 1.10918 1.00022 1.00013C1.10973 0.891209 1.17243 0.740037 1.17243 0.585936C1.17243 0.431835 1.10973 0.280664 1.00022 0.17168Z" transform="translate(31.3674 11.4118)" fill="#595555"/>
        <path d="M29.8284 0.171621C29.7185 0.0617577 29.5694 0 29.4139 0L14.9999 0.000761717C14.6763 0.000761717 14.414 0.263144 14.414 0.586698V2.2623L8.85978 3.75052C8.54717 3.83431 8.36166 4.15558 8.44545 4.46812L11.3241 15.2108L8.83382 17.701C8.51688 17.2382 7.98471 16.9339 7.38277 16.9339H1.7578C0.788516 16.9339 0 17.7224 0 18.6916V28.2421C0 29.2114 0.788516 29.9999 1.7578 29.9999H7.38282C8.20626 29.9999 8.89898 29.4306 9.08882 28.6652L9.78552 29.2727C10.3234 29.7417 11.0124 30 11.7261 30H29.414C29.7376 30 30 29.7376 30 29.4141V0.585936C29.9999 0.430546 29.9382 0.281484 29.8284 0.171621ZM7.96866 28.2422C7.96866 28.5652 7.7058 28.8281 7.38271 28.8281H1.75774C1.43465 28.8281 1.17179 28.5653 1.17179 28.2422V18.6917C1.17179 18.3686 1.43465 18.1057 1.75774 18.1057H3.9843V24.8554C3.9843 25.179 4.24669 25.4414 4.57025 25.4414C4.89382 25.4414 5.1562 25.179 5.1562 24.8554V18.1057H7.38277C7.70586 18.1057 7.96872 18.3686 7.96872 18.6917V28.2422H7.96866ZM9.72904 4.73079L14.414 3.47548V5.64667L14.0213 5.7519C13.8711 5.79216 13.7432 5.8903 13.6655 6.02489C13.5878 6.15948 13.5667 6.31938 13.6069 6.4695C13.8321 7.30979 13.3316 8.17657 12.4913 8.40174C12.341 8.44205 12.2129 8.54037 12.1352 8.67526C12.0576 8.81008 12.0367 8.97028 12.0773 9.12051L14.3613 17.5778H13.1853L12.5792 15.2069C12.5599 15.1314 12.5262 15.0618 12.481 15.0014L9.72904 4.73079ZM14.414 8.33371V13.2779L13.3452 9.32078C13.7917 9.09028 14.157 8.74539 14.414 8.33371ZM22.832 28.8281H11.726C11.2956 28.8281 10.88 28.6723 10.5556 28.3895L9.14056 27.1555V19.0515L11.6987 16.4935L12.1627 18.3087C12.229 18.5681 12.4626 18.7495 12.7303 18.7495L24.2504 18.7502C24.7028 18.7502 25.0707 19.1182 25.0707 19.5705C25.0707 20.0229 24.7028 20.3908 24.2504 20.3908H18.3475C18.024 20.3908 17.7616 20.6532 17.7616 20.9768C17.7616 21.3003 18.024 21.5627 18.3475 21.5627H26.0844C26.5368 21.5627 26.9048 21.9307 26.9048 22.383C26.9048 22.8353 26.5368 23.2033 26.0844 23.2033H18.3475C18.024 23.2033 17.7616 23.4657 17.7616 23.7893C17.7616 24.1128 18.024 24.3752 18.3475 24.3752H24.8307C25.283 24.3752 25.651 24.7432 25.651 25.1955C25.651 25.6478 25.283 26.0158 24.8307 26.0158H18.3475C18.024 26.0158 17.7616 26.2782 17.7616 26.6017C17.7616 26.9253 18.024 27.1877 18.3475 27.1877H22.832C23.2843 27.1877 23.6523 27.5557 23.6523 28.008C23.6523 28.4601 23.2843 28.8281 22.832 28.8281ZM28.8281 28.8281H28.828H24.6467C24.7604 28.5777 24.8242 28.3001 24.8242 28.0078C24.8242 27.7154 24.7604 27.4378 24.6467 27.1874H24.8307C25.9292 27.1874 26.8228 26.2938 26.8228 25.1953C26.8228 24.8749 26.7464 24.5722 26.6114 24.3037C27.4549 24.072 28.0766 23.2989 28.0766 22.3829C28.0766 21.9385 27.9302 21.5277 27.6833 21.1961V13.7699C27.6833 13.4464 27.4209 13.184 27.0974 13.184C26.7738 13.184 26.5114 13.4464 26.5114 13.7699V20.4374C26.3737 20.4072 26.2309 20.3908 26.0843 20.3908H26.0651C26.1787 20.1404 26.2425 19.8629 26.2425 19.5705C26.2425 18.472 25.3488 17.5784 24.2503 17.5784H23.3084C24.3086 17.1495 25.011 16.1554 25.011 15C25.011 13.4537 23.7531 12.1958 22.2068 12.1958C20.6606 12.1958 19.4026 13.4537 19.4026 15C19.4026 16.1554 20.1051 17.1495 21.1052 17.5784H17.9023V6.43727C18.949 6.20917 19.775 5.38329 20.003 4.33652H24.4106C24.6387 5.38329 25.4646 6.20917 26.5114 6.43727V8.25895C26.5114 8.5825 26.7737 8.84489 27.0973 8.84489C27.4209 8.84489 27.6833 8.5825 27.6833 8.25895V5.91415C27.6833 5.59059 27.4209 5.32821 27.0973 5.32821C26.2273 5.32821 25.5197 4.62046 25.5197 3.75058C25.5197 3.42702 25.2573 3.16464 24.9337 3.16464H19.4799C19.1564 3.16464 18.894 3.42702 18.894 3.75058C18.894 4.62052 18.1863 5.32821 17.3164 5.32821C16.9928 5.32821 16.7304 5.59059 16.7304 5.91415V17.5783H15.5859V1.17252L28.8281 1.17187V28.8281ZM22.207 16.6323C21.3069 16.6323 20.5747 15.9 20.5747 15C20.5747 14.1 21.3069 13.3677 22.207 13.3677C23.107 13.3677 23.8392 14.1 23.8392 15C23.8392 15.9 23.107 16.6323 22.207 16.6323Z" transform="translate(4.8562 0.864502)" fill="#595555"/>
    </g>
    <defs>
        <filter id="filter0_d" x="0.856201" y="0.864502" width="38" height="38" filterUnits="userSpaceOnUse" color-interpolation-filters="sRGB">
            <feFlood flood-opacity="0" result="BackgroundImageFix"/>
            <feColorMatrix in="SourceAlpha" type="matrix" values="0 0 0 0 0 0 0 0 0 0 0 0 0 0 0 0 0 0 255 0"/>
            <feOffset dy="4"/>
            <feGaussianBlur stdDeviation="2"/>
            <feColorMatrix type="matrix" values="0 0 0 0 0 0 0 0 0 0 0 0 0 0 0 0 0 0 0.25 0"/>
            <feBlend mode="normal" in2="BackgroundImageFix" result="effect1_dropShadow"/>
            <feBlend mode="normal" in="SourceGraphic" in2="effect1_dropShadow" result="shape"/>
        </filter>
    </defs>
</svg>
