<svg width="38" height="44" viewBox="0 0 38 44" fill="none" xmlns="http://www.w3.org/2000/svg">
    <g filter="url(#filter0_dd)">
        <path d="M0.668881 1.2195H9.36434C9.73423 1.2195 10.0332 0.946941 10.0332 0.60975C10.0332 0.272558 9.73423 0 9.36434 0H0.668881C0.29899 0 0 0.272558 0 0.60975C0 0.946941 0.29899 1.2195 0.668881 1.2195Z" transform="translate(8.32535 12.1231)" fill="#595555"/>
        <path d="M0.668881 1.2195H9.36434C9.73423 1.2195 10.0332 0.94694 10.0332 0.609749C10.0332 0.272558 9.73423 0 9.36434 0H0.668881C0.29899 0 0 0.272558 0 0.609749C0 0.94694 0.29899 1.2195 0.668881 1.2195Z" transform="translate(8.32535 31.0253)" fill="#595555"/>
        <path d="M0.668881 1.2195H20.0664C20.4363 1.2195 20.7353 0.94694 20.7353 0.609749C20.7353 0.272558 20.4363 0 20.0664 0H0.668881C0.29899 0 0 0.272558 0 0.609749C0 0.94694 0.29899 1.2195 0.668881 1.2195Z" transform="translate(8.32535 15.7816)" fill="#595555"/>
        <path d="M0.668881 1.2195H20.0664C20.4363 1.2195 20.7353 0.94694 20.7353 0.609749C20.7353 0.272558 20.4363 0 20.0664 0H0.668881C0.29899 0 0 0.272558 0 0.609749C0 0.94694 0.29899 1.2195 0.668881 1.2195Z" transform="translate(8.32535 23.0986)" fill="#595555"/>
        <path d="M0.668881 1.2195H20.0664C20.4363 1.2195 20.7353 0.946943 20.7353 0.609751C20.7353 0.272559 20.4363 0 20.0664 0H0.668881C0.29899 0 0 0.272559 0 0.609751C0 0.946943 0.29899 1.2195 0.668881 1.2195Z" transform="translate(8.32535 27.3668)" fill="#595555"/>
        <path d="M0.668881 1.2195H10.0332C10.4031 1.2195 10.7021 0.946941 10.7021 0.60975C10.7021 0.272558 10.4031 0 10.0332 0H0.668881C0.29899 0 0 0.272558 0 0.60975C0 0.946941 0.29899 1.2195 0.668881 1.2195Z" transform="translate(8.32535 19.4401)" fill="#595555"/>
        <path d="M5.35105 0H0.668881C0.29899 0 0 0.272558 0 0.60975C0 0.946941 0.29899 1.2195 0.668881 1.2195H5.35105C5.72094 1.2195 6.01993 0.946941 6.01993 0.60975C6.01993 0.272558 5.72094 0 5.35105 0Z" transform="translate(23.0407 19.4401)" fill="#595555"/>
        <path d="M0.193976 0.1715C0.0668888 0.286743 0 0.43918 0 0.604422C0 0.762957 0.0729087 0.921492 0.193976 1.03734C0.320395 1.15259 0.487615 1.21417 0.668881 1.21417C0.849479 1.21417 1.0167 1.1471 1.14379 1.03734C1.26419 0.921492 1.33776 0.769055 1.33776 0.604422C1.33776 0.43918 1.27021 0.286743 1.14379 0.1715C0.889612 -0.0541071 0.448151 -0.0602046 0.193976 0.1715Z" transform="translate(20.3652 19.4454)" fill="#595555"/>
        <path d="M24.0797 1.2195H20.0664V0.60975C20.0664 0.272558 19.7675 0 19.3976 0H13.3776C13.0077 0 12.7087 0.272558 12.7087 0.60975V1.2195H8.69546H0V36.585H32.7752V1.2195H24.0797ZM18.7287 1.2195V1.82925V3.04875H14.0465V1.82925V1.2195H18.7287ZM12.7087 2.439V3.6585V4.26825H13.3776H19.3976H20.0664V3.6585V2.439H23.4109V3.04875V4.878H9.36434V3.04875V2.439H12.7087ZM8.02658 5.48775V6.0975H8.69546H24.0797H24.7486V5.48775V4.26825H29.4308V33.5362H3.34441V4.26825H8.02658V5.48775ZM31.4374 35.3655H1.33776V2.439H8.02658V3.04875H2.00664V34.7557H30.7685V3.04875H24.7486V2.439H31.4374V35.3655Z" transform="translate(2.30542 2.97682)" fill="#595555"/>
    </g>
    <defs>
        <filter id="filter0_dd" x="0.30542" y="0.976822" width="36.7752" height="42.585" filterUnits="userSpaceOnUse" color-interpolation-filters="sRGB">
            <feFlood flood-opacity="0" result="BackgroundImageFix"/>
            <feColorMatrix in="SourceAlpha" type="matrix" values="0 0 0 0 0 0 0 0 0 0 0 0 0 0 0 0 0 0 255 0"/>
            <feOffset dy="2"/>
            <feGaussianBlur stdDeviation="1"/>
            <feColorMatrix type="matrix" values="0 0 0 0 0 0 0 0 0 0 0 0 0 0 0 0 0 0 0.25 0"/>
            <feBlend mode="normal" in2="BackgroundImageFix" result="effect1_dropShadow"/>
            <feColorMatrix in="SourceAlpha" type="matrix" values="0 0 0 0 0 0 0 0 0 0 0 0 0 0 0 0 0 0 255 0"/>
            <feOffset/>
            <feGaussianBlur stdDeviation="1"/>
            <feColorMatrix type="matrix" values="0 0 0 0 0 0 0 0 0 0 0 0 0 0 0 0 0 0 0.12 0"/>
            <feBlend mode="normal" in2="effect1_dropShadow" result="effect2_dropShadow"/>
            <feBlend mode="normal" in="SourceGraphic" in2="effect2_dropShadow" result="shape"/>
        </filter>
    </defs>
</svg>
