<?xml version="1.0" encoding="utf-8"?>
<!-- Generator: Adobe Illustrator 19.1.0, SVG Export Plug-In . SVG Version: 6.00 Build 0)  -->
<svg version="1.1" id="Calque_1" xmlns="http://www.w3.org/2000/svg" xmlns:xlink="http://www.w3.org/1999/xlink" x="0px" y="0px"
	 viewBox="-172 236 39 35.1" style="enable-background:new -172 236 39 35.1;" xml:space="preserve">
<style type="text/css">
	.st0{fill:#595555;}
</style>
<g>
	<path class="st0" d="M-161,245.9h8c0.3,0,0.6-0.2,0.6-0.6c0-0.3-0.3-0.6-0.6-0.6h-8c-0.3,0-0.6,0.2-0.6,0.6
		C-161.6,245.6-161.4,245.9-161,245.9z"/>
	<path class="st0" d="M-161,263h8c0.3,0,0.6-0.2,0.6-0.6c0-0.3-0.3-0.6-0.6-0.6h-8c-0.3,0-0.6,0.2-0.6,0.6
		C-161.6,262.8-161.4,263-161,263z"/>
	<path class="st0" d="M-161,249.2h17.8c0.3,0,0.6-0.2,0.6-0.6s-0.3-0.6-0.6-0.6H-161c-0.3,0-0.6,0.2-0.6,0.6S-161.4,249.2-161,249.2
		z"/>
	<path class="st0" d="M-161,255.8h17.8c0.3,0,0.6-0.2,0.6-0.6s-0.3-0.6-0.6-0.6H-161c-0.3,0-0.6,0.2-0.6,0.6S-161.4,255.8-161,255.8
		z"/>
	<path class="st0" d="M-161,259.7h17.8c0.3,0,0.6-0.2,0.6-0.6c0-0.3-0.3-0.6-0.6-0.6H-161c-0.3,0-0.6,0.2-0.6,0.6
		C-161.6,259.5-161.4,259.7-161,259.7z"/>
	<path class="st0" d="M-161,252.5h8.6c0.3,0,0.6-0.2,0.6-0.6c0-0.3-0.3-0.6-0.6-0.6h-8.6c-0.3,0-0.6,0.2-0.6,0.6
		C-161.6,252.3-161.4,252.5-161,252.5z"/>
	<path class="st0" d="M-143.3,251.4h-4.3c-0.3,0-0.6,0.2-0.6,0.6c0,0.3,0.3,0.6,0.6,0.6h4.3c0.3,0,0.6-0.2,0.6-0.6
		C-142.7,251.6-142.9,251.4-143.3,251.4z"/>
	<path class="st0" d="M-150.4,251.6c-0.1,0.1-0.2,0.2-0.2,0.4c0,0.1,0.1,0.3,0.2,0.4c0.1,0.1,0.3,0.2,0.4,0.2c0.2,0,0.3-0.1,0.4-0.2
		c0.1-0.1,0.2-0.2,0.2-0.4c0-0.1-0.1-0.3-0.2-0.4C-149.8,251.4-150.2,251.3-150.4,251.6z"/>
	<path class="st0" d="M-145.1,237.6h-3.7V237c0-0.3-0.3-0.6-0.6-0.6h-5.5c-0.3,0-0.6,0.2-0.6,0.6v0.6h-3.7h-8v32.1h30v-32.1H-145.1z
		 M-150,237.6v0.6v1.1h-4.3v-1.1v-0.6H-150z M-155.5,238.7v1.1v0.6h0.6h5.5h0.6v-0.6v-1.1h3.1v0.6v1.7h-12.9v-1.7v-0.6H-155.5z
		 M-159.8,241.4v0.6h0.6h14.1h0.6v-0.6v-1.1h4.3v26.6h-23.9v-26.6h4.3V241.4z M-138.4,268.6h-27.6v-29.9h6.1v0.6h-5.5V268h26.3
		v-28.8h-5.5v-0.6h6.1V268.6z"/>
</g>
</svg>
