<svg width="39" height="39" viewBox="0 0 39 39" fill="none" xmlns="http://www.w3.org/2000/svg">
    <g filter="url(#filter0_d)">
        <path d="M4.47158 -1.16229e-08C4.12853 -1.16229e-08 3.77525 0.0365625 3.42253 0.108281L3.69389 1.01813C5.84492 0.583125 7.72059 1.93172 7.72059 3.615C7.72059 7.55766 2.27163 10.4634 -5.72932e-07 11.0105L0.319155 11.9105C3.20463 11.2153 8.85897 7.96922 8.85954 3.615C8.85954 1.62141 6.89113 -1.16229e-08 4.47158 -1.16229e-08Z" transform="translate(26.0656 1.61406)" fill="#595555"/>
        <path d="M1.13724 3.61496C1.13724 1.93168 3.01235 0.581207 5.16394 1.01855L5.43644 0.108238C2.58965 -0.468324 5.64251e-08 1.33918 5.64251e-08 3.61496C5.64251e-08 7.96964 5.6549 11.2157 8.53924 11.9104L8.8584 11.0104C6.5862 10.4629 1.13724 7.55761 1.13724 3.61496Z" transform="translate(4.92517 1.6141)" fill="#595555"/>
        <path d="M4.51482 -7.15256e-07H0.568904C0.254869 -7.15256e-07 -7.8127e-08 0.209531 -7.8127e-08 0.468749V2.24766C-7.8127e-08 2.38875 0.0779396 2.52328 0.211632 2.61234C0.313466 2.68031 0.439763 2.71641 0.568904 2.71641C0.608727 2.71641 0.649119 2.71266 0.688943 2.70563C1.86088 2.49703 3.22341 2.49703 4.39478 2.70563C4.56318 2.73469 4.7384 2.70094 4.87209 2.61234C5.00578 2.52328 5.08372 2.38969 5.08372 2.24766V0.468749C5.08372 0.209531 4.82942 -7.15256e-07 4.51482 -7.15256e-07ZM3.94592 1.68891C3.03453 1.58531 2.04919 1.58484 1.13781 1.68937V0.937499V0.937031H3.94592V1.68891Z" transform="translate(17.383 17.8558)" fill="#595555"/>
        <path d="M15.9259 -1.14441e-07H0.568904C0.254869 -1.14441e-07 3.03827e-07 0.209531 3.03827e-07 0.46875V2.20031C3.03827e-07 2.45953 0.254869 2.66906 0.568904 2.66906H15.9259C16.2405 2.66906 16.4948 2.45953 16.4948 2.20031V0.46875C16.4948 0.209531 16.2405 -1.14441e-07 15.9259 -1.14441e-07ZM15.357 1.73156H1.13781V0.9375H15.357V1.73156Z" transform="translate(11.6775 27.7375)" fill="#595555"/>
        <path d="M13.9563 -4.43459e-07H0.568904C0.254869 -4.43459e-07 -2.69104e-07 0.209531 -2.69104e-07 0.46875V7.07297C-2.69104e-07 7.33219 0.254869 7.54172 0.568904 7.54172H13.9563C14.2704 7.54172 14.5253 7.33172 14.5253 7.07297V0.46875C14.5253 0.209531 14.271 -4.43459e-07 13.9563 -4.43459e-07ZM13.3874 6.60422H1.13781V0.9375H13.3874V6.60422Z" transform="translate(12.6623 21.1333)" fill="#595555"/>
        <path d="M9.40569 -1.85966e-07H0.568903C0.254869 -1.85966e-07 -2.69104e-07 0.209531 -2.69104e-07 0.46875V3.32297C-2.69104e-07 3.58219 0.254869 3.79172 0.568903 3.79172H9.40569C9.71972 3.79172 9.97459 3.58172 9.97459 3.32297V0.46875C9.97459 0.209531 9.72029 -1.85966e-07 9.40569 -1.85966e-07ZM8.83678 2.85422H1.13781V0.9375H8.83678V2.85422Z" transform="translate(14.9379 23.0078)" fill="#595555"/>
        <path d="M20.3315 0.235781C20.1494 0.0839063 19.9071 0 19.6488 0H0.962026C0.704881 0 0.462528 0.0834375 0.280479 0.234375C0.09843 0.385781 -0.00112819 0.585938 9.61968e-06 0.79875C0.00399195 1.11797 0.0193521 1.43203 0.0369881 1.78969C0.0512107 2.07844 0.0711228 2.36438 0.0944479 2.64891C0.378331 6.12047 1.31702 9.2925 2.80982 11.8223C3.02942 12.1945 3.26665 12.5592 3.51413 12.9052C4.65421 14.5003 5.95985 15.6445 7.39633 16.3069C7.54709 16.3762 7.72629 16.3852 7.88331 16.3336C8.0153 16.3373 8.16435 16.3373 8.3316 16.3373H12.7361C12.8003 16.357 12.868 16.3669 12.9357 16.3669C13.0313 16.3669 13.1269 16.3472 13.2139 16.3073C14.6498 15.6455 15.9561 14.5008 17.0961 12.9056C17.3419 12.5602 17.5786 12.1959 17.7993 11.8233C19.2932 9.29203 20.2319 6.11953 20.5152 2.64937C20.538 2.36484 20.5579 2.07984 20.5721 1.78875C20.5886 1.46109 20.6046 1.13297 20.6085 0.801094C20.612 0.588281 20.5135 0.387656 20.3315 0.235781ZM19.4355 1.75125C19.4207 2.03203 19.4025 2.30953 19.3797 2.58609C19.1066 5.93719 18.2061 8.98922 16.7758 11.4127C16.5688 11.7633 16.3463 12.1059 16.1153 12.4298C15.1448 13.7878 14.0172 14.8106 12.8436 15.3994H8.33217C8.33331 15.3998 7.94987 15.3994 7.76725 15.3994C6.59304 14.8102 5.46547 13.7878 4.49549 12.4294C4.26337 12.1045 4.04093 11.7628 3.83442 11.4127C2.40477 8.99016 1.50476 5.93813 1.23055 2.58609C1.20836 2.31 1.18902 2.03203 1.17309 1.70906C1.16057 1.45266 1.14749 1.19625 1.1418 0.9375H19.4679C19.4622 1.21078 19.4486 1.48078 19.4355 1.75125Z" transform="translate(9.61974 0.406555)" fill="#595555"/>
        <path d="M5.02513 -3.57628e-08C5.01603 0.147187 5.00578 0.285937 4.99441 0.423281C4.75717 3.32766 3.95502 6.06516 2.73529 8.13141C2.56462 8.42016 2.37916 8.70609 2.18402 8.97984C1.50987 9.92297 0.754366 10.6552 1.73616e-08 11.0977L0.659928 11.8617C1.544 11.3433 2.40931 10.5113 3.16481 9.45563C3.37531 9.15984 3.57556 8.85234 3.75875 8.54156C5.04049 6.36891 5.88247 3.50812 6.12994 0.485156C6.14132 0.342187 6.15156 0.200156 6.1618 0.04875L5.02513 -3.57628e-08Z" transform="translate(21.7346 2.43624)" fill="#595555"/>
        <path d="M5.02399 3.00407e-07H1.05247C0.0950068 3.00407e-07 -3.38551e-07 1.52953 -3.38551e-07 1.545C-3.38551e-07 1.55953 0.111505 2.98734 1.07807 2.98734H5.05016C5.99113 2.98734 6.10263 1.55953 6.10263 1.545C6.10263 1.52953 6.00762 3.00407e-07 5.02399 3.00407e-07ZM4.81634 2.04984H1.28572C1.21176 1.89609 1.13951 1.64063 1.13724 1.54547C1.13895 1.43156 1.22144 1.11844 1.30279 0.9375H4.79927C4.88119 1.11844 4.96312 1.43156 4.96482 1.54453C4.96312 1.64062 4.8903 1.89656 4.81634 2.04984Z" transform="translate(16.8738 15.8064)" fill="#595555"/>
        <path d="M7.19606 0.177188C5.86711 -0.0585937 4.3396 -0.0595312 3.01007 0.177188C1.12529 0.513281 -5.38208e-07 1.245 -5.38208e-07 2.13375C-5.38208e-07 2.39297 0.254868 2.6025 0.568903 2.6025H9.63723C9.95127 2.6025 10.2061 2.39297 10.2061 2.13375C10.2061 1.24453 9.08084 0.513281 7.19606 0.177188ZM1.53945 1.665C1.89104 1.44703 2.4679 1.23328 3.25015 1.09359C4.42266 0.885001 5.78518 0.885001 6.95542 1.09359C7.73823 1.23328 8.3151 1.44703 8.66668 1.665H1.53945Z" transform="translate(14.8218 19.4678)" fill="#595555"/>
    </g>
    <defs>
        <filter id="filter0_d" x="0.925171" y="0.406555" width="38" height="38" filterUnits="userSpaceOnUse" color-interpolation-filters="sRGB">
            <feFlood flood-opacity="0" result="BackgroundImageFix"/>
            <feColorMatrix in="SourceAlpha" type="matrix" values="0 0 0 0 0 0 0 0 0 0 0 0 0 0 0 0 0 0 255 0"/>
            <feOffset dy="4"/>
            <feGaussianBlur stdDeviation="2"/>
            <feColorMatrix type="matrix" values="0 0 0 0 0 0 0 0 0 0 0 0 0 0 0 0 0 0 0.25 0"/>
            <feBlend mode="normal" in2="BackgroundImageFix" result="effect1_dropShadow"/>
            <feBlend mode="normal" in="SourceGraphic" in2="effect1_dropShadow" result="shape"/>
        </filter>
    </defs>
</svg>
