<svg width="39" height="24" viewBox="0 0 39 24" fill="none" xmlns="http://www.w3.org/2000/svg">
    <g filter="url(#filter0_d)">
        <path d="M4.52923 1.27558C4.19195 0.976 3.90329 0.730795 3.69344 0.561808C2.7146 -0.225943 2.15797 -0.170679 1.52119 0.635928C1.51375 0.645786 0.967064 1.36986 -3.05176e-08 2.60615C1.17028 2.55075 2.1475 2.13631 2.85063 1.7046C3.4791 1.31944 3.81894 1.25232 4.52923 1.27558Z" transform="translate(13.7929 0.540405)" fill="#595555"/>
        <path d="M1.16782 13.0202C1.21073 13.213 1.39282 13.3747 1.57332 13.3815C1.87423 13.393 2.3641 13.4115 2.96189 13.4335L3.1792 14.4266C3.21561 14.593 3.37136 14.7279 3.52708 14.7279H4.63467C4.79039 14.7279 4.94614 14.593 4.98255 14.4266L5.18236 13.5135C5.59527 13.5279 6.01464 13.5423 6.42649 13.556L6.63211 14.4958C6.66852 14.6622 6.82427 14.797 6.97999 14.797H8.08758C8.2433 14.797 8.39905 14.6621 8.43546 14.4958L8.62618 13.6242C9.00065 13.6346 9.37509 13.6472 9.74946 13.6612L9.93962 14.5303C9.97606 14.6967 10.1317 14.8316 10.2875 14.8316H11.3951C11.5508 14.8316 11.7066 14.6967 11.743 14.5303L11.9129 13.754C13.9114 13.8481 15.9096 13.955 17.9097 13.9936L18.1141 14.928C18.1505 15.0944 18.3062 15.2293 18.462 15.2293H19.5696C19.7253 15.2293 19.8811 15.0944 19.9175 14.928L20.1195 14.0047C20.515 14.0006 20.9105 13.9929 21.3059 13.9812L21.5055 14.8934C21.542 15.0598 21.6977 15.1947 21.8534 15.1947H22.961C23.1167 15.1947 23.2725 15.0598 23.3089 14.8934L23.5331 13.8687C23.885 13.8424 24.2367 13.8118 24.5879 13.7752L24.8326 14.8935C24.869 15.0599 25.0247 15.1947 25.1805 15.1947H26.2881C26.4437 15.1947 26.5995 15.0598 26.6359 14.8935L26.9562 13.4299C27.4165 13.3414 27.8748 13.2398 28.3302 13.1216C28.7862 13.0032 29.2389 12.8682 29.6865 12.7156C29.8591 12.6568 29.9982 12.4454 29.9984 12.247C29.999 11.7062 30 10.7436 30 10.7231C30 10.4378 29.8915 10.0782 29.7676 9.83084C29.4836 9.26383 28.8926 8.98624 28.3664 8.77343C27.5702 8.45142 26.738 8.23802 25.9145 8.01978C25.563 7.9266 25.2136 7.82943 24.865 7.72409C24.342 7.56606 23.8204 7.40226 23.2985 7.24004C22.2499 6.91418 21.2113 6.56267 20.194 6.14601C20.2969 5.8408 20.1558 5.42486 19.7703 5.42486C19.5328 5.42486 19.3884 5.58292 19.3363 5.77554C19.0002 5.62266 18.6666 5.46164 18.3365 5.29015C18.4952 4.98377 18.3649 4.4911 17.9454 4.4911C17.7051 4.4911 17.56 4.65294 17.5095 4.84869C17.1556 4.65538 16.7981 4.45263 16.4488 4.23507C16.6528 3.93646 16.5331 3.38447 16.089 3.38447C15.8639 3.38447 15.7223 3.52646 15.6637 3.7053C15.3479 3.47236 15.0479 3.22232 14.7742 2.95039C14.5802 2.75777 14.3975 2.55004 14.1783 2.39067C13.5386 1.92578 12.6513 2.1296 12.0231 2.51971C11.0637 3.1144 8.90205 3.83654 7.06252 3.22269C6.28952 2.96475 5.54577 2.51501 4.98223 1.87234C4.6953 1.54511 4.4772 1.17272 4.28017 0.775805C4.10798 0.4289 3.91383 0.0607326 3.52051 0.00667028C2.74476 -0.0999432 2.03345 1.09863 1.60867 1.66038C0.70307 2.8582 0.120381 4.35474 0.0166934 5.91245C-0.0819005 7.39425 0.275788 8.93644 0.576132 10.3726C0.761476 11.2583 0.971445 12.1373 1.16782 13.0202ZM1.49979 3.76521C4.20686 5.81223 8.2513 7.05439 13.1112 8.07172C18.0177 9.099 20.135 12.0548 20.5611 12.7268C20.1868 12.7201 19.8125 12.7097 19.4383 12.6963C18.6991 12.6697 17.9603 12.632 17.2218 12.5873C15.3983 12.4768 13.5767 12.3236 11.755 12.1894C11.6172 12.18 11.4803 12.1707 11.3441 12.1615C10.5761 10.3696 9.04412 9.26208 7.47036 8.42951C5.87733 7.5867 3.9992 7.07074 2.71639 5.67573C2.32364 5.24862 1.9886 4.76127 1.71242 4.23573C1.68145 4.17668 1.46054 3.84032 1.49979 3.76521Z" transform="translate(4.8562 0.429626)" fill="#595555"/>
    </g>
    <defs>
        <filter id="filter0_d" x="0.856201" y="0.429626" width="38" height="23.2293" filterUnits="userSpaceOnUse" color-interpolation-filters="sRGB">
            <feFlood flood-opacity="0" result="BackgroundImageFix"/>
            <feColorMatrix in="SourceAlpha" type="matrix" values="0 0 0 0 0 0 0 0 0 0 0 0 0 0 0 0 0 0 255 0"/>
            <feOffset dy="4"/>
            <feGaussianBlur stdDeviation="2"/>
            <feColorMatrix type="matrix" values="0 0 0 0 0 0 0 0 0 0 0 0 0 0 0 0 0 0 0.25 0"/>
            <feBlend mode="normal" in2="BackgroundImageFix" result="effect1_dropShadow"/>
            <feBlend mode="normal" in="SourceGraphic" in2="effect1_dropShadow" result="shape"/>
        </filter>
    </defs>
</svg>
