<svg width="39" height="39" viewBox="0 0 39 39" fill="none" xmlns="http://www.w3.org/2000/svg">
    <g filter="url(#filter0_d)">
        <path d="M26.9953 6.89214L27.7675 4.57346e-07C26.9953 0.359047 25.9756 0.682969 24.7311 0.960059C21.825 1.61181 17.9708 1.97086 13.8756 1.97086C9.78035 1.97086 5.92294 1.61181 3.02011 0.960059C1.7821 0.682969 0.768875 0.36295 1.24281e-08 0.00784441L0.788423 6.88827C0.821002 7.09902 0.948062 7.39562 1.0849 7.53612C2.12418 8.58208 4.36565 9.8387 8.76061 10.3968V4.69891C8.76061 4.1603 9.1255 3.72324 9.5751 3.72324H18.1696C18.6192 3.72324 18.984 4.1603 18.984 4.69891V10.4085C23.3986 9.86606 25.6237 8.62887 26.6956 7.53612C26.8357 7.39949 26.9628 7.10288 26.9953 6.89214Z" transform="translate(5.72282 16.4714)" fill="#595555"/>
        <path d="M29.0576 2.19145e-07C28.9631 0.0585405 28.8621 0.11708 28.7546 0.171718C27.9531 0.59711 26.8194 0.975709 25.3826 1.29959C22.4766 1.95134 18.6224 2.31035 14.5272 2.31035C10.4319 2.31035 6.57453 1.95134 3.6717 1.29959C2.23495 0.97567 1.10119 0.59711 0.299731 0.171718C0.195477 0.117119 0.0944804 0.0585405 -3.10702e-09 2.19145e-07L0.495208 4.31246C0.557108 4.34755 0.622267 4.38658 0.6972 4.4256C1.42046 4.80807 2.50862 5.17105 3.85089 5.47152C6.69833 6.11156 10.4906 6.4628 14.5272 6.4628C18.5638 6.4628 22.356 6.11156 25.2035 5.47152C26.5457 5.17105 27.6371 4.80807 28.3571 4.4256C28.4353 4.38267 28.507 4.34365 28.5722 4.30462L29.0576 2.19145e-07Z" transform="translate(5.07123 10.8086)" fill="#595555"/>
        <path d="M0.912224 9.53819C1.63549 9.92066 2.72364 10.2836 4.06591 10.5841C4.09849 10.5607 4.13433 10.5411 4.17668 10.5295C6.55173 9.86602 10.4873 9.47185 14.7031 9.47185C18.9743 9.47185 22.9392 9.87383 25.3077 10.5529C25.337 10.5607 25.3664 10.5763 25.3925 10.5919C25.4022 10.5919 25.4087 10.588 25.4185 10.588C26.7608 10.2875 27.8522 9.92452 28.5722 9.54206C29.1586 9.22984 29.3834 8.96836 29.4518 8.83177C29.4714 8.79274 29.4779 8.76542 29.4779 8.74591C29.4779 8.66005 29.315 8.34393 28.5722 7.94976C28.2529 7.78195 27.862 7.61413 27.4091 7.45803V6.84921V6.24039V5.48327L29.8852 3.71926C30.0383 3.60998 30.0383 3.43046 29.8852 3.32118L27.1224 1.37765C27.0605 1.34643 26.9921 1.32691 26.9204 1.32691C26.65 1.32691 26.4317 1.58839 26.4317 1.91231V5.95159V6.5526V7.15362C26.1125 7.06385 25.7736 6.9819 25.4185 6.89994C22.6948 6.28722 19.1111 5.93988 15.27 5.90866V5.32326V4.73786V4.15245L17.7461 2.38844C17.8992 2.27917 17.8992 2.09964 17.7461 1.99037L14.9801 0.0507349C14.9182 0.0195134 14.8497 -1.16718e-07 14.7781 -1.16718e-07C14.5077 -1.16718e-07 14.2894 0.26148 14.2894 0.585402V4.73786V5.32326V5.90866C10.4222 5.93208 6.80262 6.28332 4.06272 6.89994C3.73367 6.97409 3.42416 7.05215 3.12769 7.1302V6.52919V5.92817V5.47546L5.60373 3.71145C5.75685 3.60218 5.75685 3.42265 5.60373 3.31338L2.83773 1.37374C2.77583 1.34252 2.70742 1.32301 2.63574 1.32301C2.36533 1.32301 2.14705 1.58449 2.14705 1.90841V6.20917V6.81408V7.4229C1.66162 7.58681 1.24134 7.76243 0.905774 7.94196C0.162897 8.33621 0 8.65232 0 8.73814C0 8.75766 0.00651589 8.78498 0.0260636 8.824C0.100996 8.9684 0.325794 9.22598 0.912224 9.53819Z" transform="translate(4.8562 0.372833)" fill="#595555"/>
        <path d="M17.026 0.628331C14.7422 0.226355 11.7123 4.57346e-07 8.49672 4.57346e-07C5.30393 4.57346e-07 2.28382 0.226356 1.98849e-07 0.62443C2.48907 1.0108 5.44077 1.21764 8.53256 1.21764C11.6113 1.21373 14.5435 1.01083 17.026 0.628331Z" transform="translate(11.0659 10.7345)" fill="#595555"/>
        <path d="M1.91238 4.57346e-07V5.61206V6.73603L1.42369 6.93116L0.934998 7.1263L0.309505 7.37221C0.140092 7.43851 3.18159e-08 7.66881 3.18159e-08 7.88346V8.61326C3.18159e-08 8.82791 0.146608 9.00353 0.325795 9.00353H11.7644C11.9436 9.00353 12.0902 8.82791 12.0902 8.61326V7.88346C12.0902 7.66881 11.9501 7.43855 11.7807 7.37221L11.1552 7.1263L10.6665 6.93116L10.1778 6.73603V5.61986V4.57346e-07H8.98538V5.03056H3.10479V4.57346e-07H1.91238Z" transform="translate(13.5517 21.3693)" fill="#595555"/>
    </g>
    <defs>
        <filter id="filter0_d" x="0.856201" y="0.372833" width="38" height="38" filterUnits="userSpaceOnUse" color-interpolation-filters="sRGB">
            <feFlood flood-opacity="0" result="BackgroundImageFix"/>
            <feColorMatrix in="SourceAlpha" type="matrix" values="0 0 0 0 0 0 0 0 0 0 0 0 0 0 0 0 0 0 255 0"/>
            <feOffset dy="4"/>
            <feGaussianBlur stdDeviation="2"/>
            <feColorMatrix type="matrix" values="0 0 0 0 0 0 0 0 0 0 0 0 0 0 0 0 0 0 0.25 0"/>
            <feBlend mode="normal" in2="BackgroundImageFix" result="effect1_dropShadow"/>
            <feBlend mode="normal" in="SourceGraphic" in2="effect1_dropShadow" result="shape"/>
        </filter>
    </defs>
</svg>
