<svg width="39" height="39" viewBox="0 0 39 39" fill="none" xmlns="http://www.w3.org/2000/svg">
    <g filter="url(#filter0_d)">
        <path d="M0.919144 0.0553055C0.846 -0.0184355 0.727402 -0.0184355 0.654258 0.0553055L0.0548581 0.659595C-0.0182861 0.733336 -0.0182861 0.852932 0.0548581 0.926673L0.860184 1.73857L0.0548581 2.5505C-0.0182861 2.62424 -0.0182861 2.7438 0.0548581 2.81754L0.654258 3.42187C0.727402 3.49561 0.846 3.49561 0.919144 3.42187L1.7245 2.60997L2.52986 3.4219C2.60303 3.49564 2.72163 3.49564 2.79474 3.4219L3.39417 2.81758C3.46735 2.74383 3.46735 2.62427 3.39417 2.55053L2.58882 1.7386L3.39417 0.926673C3.46735 0.852963 3.46735 0.733368 3.39417 0.659627L2.79474 0.0553377C2.72163 -0.0184032 2.60303 -0.0184032 2.52986 0.0553377L1.7245 0.867233L0.919144 0.0553055Z" transform="translate(17.7939 17.7065)" fill="#FCFCFC"/>
        <path d="M0.0548807 0.926673L0.860238 1.7386L0.0548807 2.55053C-0.0182944 2.62424 -0.0182944 2.74383 0.0548807 2.81758L0.654312 3.42186C0.727426 3.49561 0.846022 3.49561 0.919197 3.42186L1.72455 2.60997L2.52985 3.42186C2.60303 3.49561 2.72162 3.49561 2.7948 3.42186L3.3942 2.81758C3.46737 2.7438 3.46737 2.62424 3.3942 2.55053L2.58884 1.7386L3.3942 0.926673C3.46737 0.852932 3.46737 0.733368 3.3942 0.659627L2.7948 0.0553051C2.72162 -0.0184358 2.60303 -0.0184358 2.52985 0.0553051L1.72455 0.867233L0.919197 0.0553051C0.846022 -0.0184358 0.727426 -0.0184358 0.654312 0.0553051L0.0548807 0.659627C-0.0182944 0.733368 -0.0182944 0.852932 0.0548807 0.926673Z" transform="translate(24.2007 23.4415)" fill="#FCFCFC"/>
        <path d="M0.0548581 2.81757L0.654289 3.42186C0.727433 3.49561 0.846031 3.49561 0.919175 3.42186L1.72453 2.60997L2.52989 3.42186C2.60303 3.49561 2.72163 3.49561 2.79477 3.42186L3.39421 2.81757C3.46735 2.74383 3.46735 2.62427 3.39421 2.55053L2.58885 1.7386L3.39421 0.926674C3.46735 0.852933 3.46735 0.733368 3.39421 0.659627L2.79477 0.0553048C2.72163 -0.0184361 2.60303 -0.0184361 2.52989 0.0553048L1.72453 0.867232L0.919175 0.0553048C0.846031 -0.0184361 0.727433 -0.0184361 0.654289 0.0553048L0.0548581 0.659627C-0.0182861 0.733368 -0.0182861 0.852933 0.0548581 0.926674L0.860215 1.7386L0.0548581 2.55053C-0.0182861 2.62427 -0.0182861 2.74383 0.0548581 2.81757Z" transform="translate(12.0626 19.566)" fill="#FCFCFC"/>
        <path d="M1.78846 3.60609C2.77619 3.60609 3.57691 2.79884 3.57691 1.80305C3.57691 0.807252 2.77619 0 1.78846 0C0.800719 0 0 0.807252 0 1.80305C0 2.79884 0.800719 3.60609 1.78846 3.60609Z" transform="translate(16.6348 10.2943)" fill="#FCFCFC"/>
        <path d="M1.78846 3.60609C2.77619 3.60609 3.57691 2.79884 3.57691 1.80305C3.57691 0.807252 2.77619 0 1.78846 0C0.800719 0 0 0.807252 0 1.80305C0 2.79884 0.800719 3.60609 1.78846 3.60609Z" transform="translate(16.6348 25.1801)" fill="#FCFCFC"/>
        <path d="M0.897577 2.35299C0.927087 2.52208 1.05682 2.56977 1.18729 2.45938L1.64814 2.06975C2.43694 3.25383 2.88172 4.45645 2.97127 5.6501C3.04993 6.69883 2.85665 7.75113 2.39663 8.77763C1.59038 10.5768 0.262468 11.6676 0.184483 11.7305C0.173566 11.7388 0.162927 11.7476 0.152628 11.757C-0.0324528 11.9255 -0.051848 12.2117 0.108903 12.4039C0.200025 12.5129 0.32963 12.5691 0.461117 12.5691C0.563032 12.569 0.666057 12.5353 0.75317 12.4662C0.817063 12.4154 2.32907 11.2007 3.24411 9.15171C3.76642 7.98218 3.98481 6.7781 3.89319 5.57307C3.7881 4.19033 3.2726 2.8108 2.36052 1.46751L2.83525 1.0661C2.96569 0.955771 2.94179 0.818703 2.78178 0.759916L0.761156 0.0180608C0.601145 -0.0407267 0.495376 0.0487138 0.524887 0.217864L0.897577 2.35299Z" transform="translate(20.7497 13.2138)" fill="#FCFCFC"/>
        <path d="M29.5375 8.68921C29.7929 8.68921 30 8.48042 30 8.22289C30 7.96536 29.7929 7.75657 29.5375 7.75657H29.3981H25.1086C25.1743 7.58785 25.2108 7.40444 25.2108 7.21247C25.2108 6.55228 24.7833 5.9912 24.1929 5.79488V1.12662e-09H23.2678V5.79488C22.6773 5.9912 22.2498 6.55228 22.2498 7.21247C22.2498 7.40444 22.2863 7.58785 22.3521 7.75657H7.64791C7.71369 7.58785 7.7502 7.40444 7.7502 7.21247C7.7502 6.55228 7.32268 5.9912 6.73223 5.79488V1.12662e-09H5.80713V5.79488C5.21667 5.9912 4.78919 6.55228 4.78919 7.21247C4.78919 7.40444 4.82573 7.58785 4.89147 7.75657H0.601929H0.462548C0.207098 7.75657 0 7.96536 0 8.22289C0 8.48042 0.207098 8.68921 0.462548 8.68921H0.601929V29.0674H0.462548C0.207098 29.0674 0 29.2761 0 29.5337C0 29.7912 0.207098 30 0.462548 30H0.601929H29.3981H29.5375C29.7929 30 30 29.7912 30 29.5337C30 29.2761 29.7929 29.0674 29.5375 29.0674H29.3981V8.68921H29.5375ZM23.4102 6.75382C23.5978 6.6199 23.8702 6.62167 24.056 6.75802C24.2419 6.89437 24.3273 7.15514 24.2586 7.37627C24.0996 7.88813 23.3527 7.88527 23.1997 7.3694C23.1845 7.31841 23.1776 7.26544 23.1781 7.21247C23.1798 7.03474 23.2657 6.85697 23.4102 6.75382ZM6.26968 6.65251C6.57573 6.65251 6.82477 6.90336 6.8251 7.21184C6.82584 7.89979 5.71428 7.93312 5.71428 7.21247C5.71428 6.9037 5.96344 6.65251 6.26968 6.65251ZM28.473 29.0674H1.52702V8.68921H28.473V29.0674H28.473Z" transform="translate(4.8562 0.566803)" fill="#FCFCFC"/>
    </g>
    <defs>
        <filter id="filter0_d" x="0.856201" y="0.566803" width="38" height="38" filterUnits="userSpaceOnUse" color-interpolation-filters="sRGB">
            <feFlood flood-opacity="0" result="BackgroundImageFix"/>
            <feColorMatrix in="SourceAlpha" type="matrix" values="0 0 0 0 0 0 0 0 0 0 0 0 0 0 0 0 0 0 255 0"/>
            <feOffset dy="4"/>
            <feGaussianBlur stdDeviation="2"/>
            <feColorMatrix type="matrix" values="0 0 0 0 0 0 0 0 0 0 0 0 0 0 0 0 0 0 0.25 0"/>
            <feBlend mode="normal" in2="BackgroundImageFix" result="effect1_dropShadow"/>
            <feBlend mode="normal" in="SourceGraphic" in2="effect1_dropShadow" result="shape"/>
        </filter>
    </defs>
</svg>
