<svg width="39" height="39" viewBox="0 0 39 39" fill="none" xmlns="http://www.w3.org/2000/svg">
    <g filter="url(#filter0_d)">
        <path d="M29.0448 24.0268H25.7453L19.9411 0.53711C19.8633 0.222812 19.5614 0 19.2137 0H10.8794C10.5281 0 10.2241 0.22701 10.1501 0.5452L4.66743 24.0268H0.955181C0.427721 24.0268 -4.40844e-08 24.423 -4.40844e-08 24.9116V29.1151C-4.40844e-08 29.6039 0.427721 30 0.955181 30H29.0448C29.5724 30 30 29.6039 30 29.1151V24.9117C30 24.423 29.5724 24.0268 29.0448 24.0268ZM21.9402 14.8239H8.34305L9.42739 10.18H20.7926L21.9402 14.8239ZM11.4815 1.38268H18.6188L19.5904 5.3149H10.5634L11.4815 1.38268ZM7.20717 19.689H23.1424L24.2142 24.0269H6.19433L7.20717 19.689Z" transform="translate(4.8562 0.0560608)" fill="#595555"/>
    </g>
    <defs>
        <filter id="filter0_d" x="0.856201" y="0.0560608" width="38" height="38" filterUnits="userSpaceOnUse" color-interpolation-filters="sRGB">
            <feFlood flood-opacity="0" result="BackgroundImageFix"/>
            <feColorMatrix in="SourceAlpha" type="matrix" values="0 0 0 0 0 0 0 0 0 0 0 0 0 0 0 0 0 0 255 0"/>
            <feOffset dy="4"/>
            <feGaussianBlur stdDeviation="2"/>
            <feColorMatrix type="matrix" values="0 0 0 0 0 0 0 0 0 0 0 0 0 0 0 0 0 0 0.25 0"/>
            <feBlend mode="normal" in2="BackgroundImageFix" result="effect1_dropShadow"/>
            <feBlend mode="normal" in="SourceGraphic" in2="effect1_dropShadow" result="shape"/>
        </filter>
    </defs>
</svg>
