<svg width="34" height="34" viewBox="0 0 34 34" fill="none" xmlns="http://www.w3.org/2000/svg">
    <path d="M32.5877 0.189066C32.4676 0.0680355 32.3047 0 32.1349 0L16.3874 0.000839147C16.0339 0.000839147 15.7473 0.289893 15.7473 0.646337V2.49227L9.67936 4.13177C9.33784 4.22407 9.13516 4.578 9.2267 4.92231L12.3716 16.757L9.651 19.5003C9.30474 18.9905 8.72335 18.6552 8.06572 18.6552H1.92041C0.861459 18.6552 0 19.5239 0 20.5916V31.113C0 32.1808 0.861459 33.0495 1.92041 33.0495H8.06578C8.96539 33.0495 9.72219 32.4223 9.9296 31.5791L10.6907 32.2484C11.2783 32.765 12.0312 33.0496 12.8108 33.0496H32.135C32.4885 33.0496 32.7752 32.7605 32.7752 32.4041V0.645498C32.7751 0.474312 32.7077 0.310097 32.5877 0.189066ZM8.70581 31.1131C8.70581 31.4689 8.41863 31.7586 8.06565 31.7586H1.92034C1.56736 31.7586 1.28019 31.469 1.28019 31.1131V20.5917C1.28019 20.2358 1.56736 19.9462 1.92034 19.9462H4.35287V27.382C4.35287 27.7385 4.63953 28.0275 4.99303 28.0275C5.34652 28.0275 5.63319 27.7385 5.63319 27.382V19.9462H8.06572C8.4187 19.9462 8.70587 20.2358 8.70587 20.5917V31.1131H8.70581ZM10.629 5.21169L15.7473 3.82877V6.22066L15.3183 6.3366C15.1542 6.38094 15.0145 6.48906 14.9296 6.63733C14.8447 6.7856 14.8217 6.96176 14.8657 7.12714C15.1117 8.05285 14.5649 9.00773 13.6469 9.2558C13.4827 9.30021 13.3427 9.40852 13.2578 9.55711C13.173 9.70564 13.1502 9.88212 13.1945 10.0476L15.6898 19.3646H14.405L13.7429 16.7527C13.7218 16.6695 13.6849 16.5929 13.6356 16.5263L10.629 5.21169ZM15.7473 9.18085V14.6276L14.5798 10.2683C15.0675 10.0143 15.4666 9.63438 15.7473 9.18085ZM24.9441 31.7585H12.8107C12.3405 31.7585 11.8864 31.5869 11.532 31.2753L9.98612 29.9159V20.9882L12.7809 18.1701L13.2878 20.1698C13.3603 20.4556 13.6155 20.6554 13.908 20.6554L26.4937 20.6562C26.9879 20.6562 27.3899 21.0616 27.3899 21.5599C27.3899 22.0582 26.9879 22.4636 26.4937 22.4636H20.0448C19.6913 22.4636 19.4046 22.7526 19.4046 23.1091C19.4046 23.4655 19.6913 23.7546 20.0448 23.7546H28.4974C28.9916 23.7546 29.3936 24.16 29.3936 24.6583C29.3936 25.1566 28.9916 25.562 28.4974 25.562H20.0448C19.6913 25.562 19.4046 25.851 19.4046 26.2075C19.4046 26.5639 19.6913 26.853 20.0448 26.853H27.1277C27.6219 26.853 28.0239 27.2583 28.0239 27.7567C28.0239 28.255 27.6219 28.6604 27.1277 28.6604H20.0448C19.6913 28.6604 19.4046 28.9494 19.4046 29.3059C19.4046 29.6623 19.6913 29.9514 20.0448 29.9514H24.9441C25.4383 29.9514 25.8403 30.3567 25.8403 30.8551C25.8402 31.3531 25.4382 31.7585 24.9441 31.7585ZM31.4949 31.7585H31.4948H26.9267C27.0508 31.4827 27.1206 31.1769 27.1206 30.8548C27.1206 30.5327 27.0508 30.2269 26.9267 29.9511H27.1277C28.3278 29.9511 29.3041 28.9666 29.3041 27.7565C29.3041 27.4035 29.2206 27.07 29.0731 26.7742C29.9947 26.519 30.6738 25.6673 30.6738 24.6582C30.6738 24.1686 30.5139 23.716 30.2442 23.3507V15.1697C30.2442 14.8132 29.9575 14.5242 29.604 14.5242C29.2505 14.5242 28.9639 14.8132 28.9639 15.1697V22.5149C28.8134 22.4817 28.6574 22.4636 28.4973 22.4636H28.4763C28.6004 22.1878 28.6701 21.882 28.6701 21.5599C28.6701 20.3497 27.6937 19.3653 26.4936 19.3653H25.4646C26.5573 18.8928 27.3247 17.7976 27.3247 16.5247C27.3247 14.8213 25.9504 13.4355 24.2611 13.4355C22.5719 13.4355 21.1975 14.8213 21.1975 16.5247C21.1975 17.7976 21.965 18.8928 23.0576 19.3653H19.5583V7.09163C20.7019 6.84034 21.6043 5.93051 21.8534 4.77733H26.6687C26.9179 5.93051 27.8202 6.84034 28.9638 7.09163V9.09849C28.9638 9.45493 29.2505 9.74399 29.604 9.74399C29.9575 9.74399 30.2441 9.45493 30.2441 9.09849V6.51533C30.2441 6.15889 29.9575 5.86984 29.604 5.86984C28.6535 5.86984 27.8804 5.09014 27.8804 4.13183C27.8804 3.77539 27.5938 3.48633 27.2403 3.48633H21.2819C20.9284 3.48633 20.6418 3.77539 20.6418 4.13183C20.6418 5.0902 19.8686 5.86984 18.9182 5.86984C18.5647 5.86984 18.2781 6.15889 18.2781 6.51533V19.3652H17.0277V1.29171L31.4949 1.291V31.7585ZM24.2612 18.323C23.2779 18.323 22.4779 17.5163 22.4779 16.5248C22.4779 15.5333 23.278 14.7266 24.2612 14.7266C25.2445 14.7266 26.0445 15.5333 26.0445 16.5247C26.0445 17.5162 25.2446 18.323 24.2612 18.323Z" transform="translate(0.30542 0.37207)" fill="#595555"/>
</svg>
