<svg width="16" height="19" viewBox="0 0 16 19" version="1.1" xmlns="http://www.w3.org/2000/svg" xmlns:xlink="http://www.w3.org/1999/xlink">
    <title>multiple-users-silhouette</title>
    <desc>Created using Figma</desc>
    <g id="Canvas" transform="translate(74 336)">
        <g id="multiple-users-silhouette" filter="url(#filter0_dd)">
            <g id="Group">
                <g id="Vector">
                    <use xlink:href="#path0_fill" transform="translate(-71.9384 -333.152)" fill="#595555"/>
                </g>
            </g>
        </g>
    </g>
    <defs>
        <filter id="filter0_dd" filterUnits="userSpaceOnUse" x="-74" y="-336" width="16" height="19" color-interpolation-filters="sRGB">
            <feFlood flood-opacity="0" result="BackgroundImageFix"/>
            <feColorMatrix in="SourceAlpha" type="matrix" values="0 0 0 0 0 0 0 0 0 0 0 0 0 0 0 0 0 0 255 0"/>
            <feOffset dx="0" dy="2"/>
            <feGaussianBlur stdDeviation="1"/>
            <feColorMatrix type="matrix" values="0 0 0 0 0 0 0 0 0 0 0 0 0 0 0 0 0 0 0.24 0"/>
            <feBlend mode="normal" in2="BackgroundImageFix" result="effect1_dropShadow"/>
            <feColorMatrix in="SourceAlpha" type="matrix" values="0 0 0 0 0 0 0 0 0 0 0 0 0 0 0 0 0 0 255 0"/>
            <feOffset dx="0" dy="0"/>
            <feGaussianBlur stdDeviation="1"/>
            <feColorMatrix type="matrix" values="0 0 0 0 0 0 0 0 0 0 0 0 0 0 0 0 0 0 0.12 0"/>
            <feBlend mode="normal" in2="effect1_dropShadow" result="effect2_dropShadow"/>
            <feBlend mode="normal" in="SourceGraphic" in2="effect2_dropShadow" result="shape"/>
        </filter>
        <path id="path0_fill" d="M 6.94538 1.97543C 7.47754 2.37191 7.8507 3.04285 7.91864 3.82165C 8.13567 3.94215 8.37654 4.01144 8.63192 4.01144C 9.56424 4.01144 10.3199 3.11351 10.3199 2.00581C 10.3199 0.897937 9.56424 8.4641e-09 8.63192 8.4641e-09C 7.7085 0.000341364 6.95946 0.882234 6.94538 1.97543ZM 5.83955 6.08228C 6.77187 6.08228 7.52753 5.18417 7.52753 4.07647C 7.52753 2.96877 6.77173 2.07084 5.83955 2.07084C 4.90737 2.07084 4.15129 2.96894 4.15129 4.07664C 4.15129 5.18434 4.90737 6.08228 5.83955 6.08228ZM 6.55556 6.21899L 5.12325 6.21899C 3.93153 6.21899 2.962 7.37124 2.962 8.78735L 2.962 10.8688L 2.96646 10.9014L 3.08711 10.9463C 4.22439 11.3685 5.21245 11.5093 6.0257 11.5093C 7.61414 11.5093 8.53483 10.9712 8.59156 10.9369L 8.70431 10.8691L 8.71638 10.8691L 8.71638 8.78735C 8.71681 7.37124 7.74728 6.21899 6.55556 6.21899ZM 9.34822 4.14833L 7.92697 4.14833C 7.9116 4.82404 7.66886 5.43251 7.28493 5.87013C 8.34422 6.24442 9.11927 7.41169 9.11927 8.79042L 9.11927 9.43183C 10.5226 9.37073 11.3312 8.89812 11.3845 8.86638L 11.4973 8.79845L 11.5093 8.79845L 11.5093 6.71635C 11.5093 5.3004 10.5398 4.14833 9.34822 4.14833ZM 2.87769 4.01178C 3.2079 4.01178 3.51513 3.89726 3.7754 3.70217C 3.85813 3.06094 4.14741 2.5006 4.56064 2.11897C 4.56236 2.08142 4.56538 2.04421 4.56538 2.00632C 4.56538 0.898449 3.80958 0.000512005 2.87769 0.000512005C 1.94522 0.000512005 1.18971 0.898449 1.18971 2.00632C 1.18971 3.11368 1.94522 4.01178 2.87769 4.01178ZM 4.39359 5.87013C 4.01153 5.43473 3.76965 4.8295 3.75198 4.15788C 3.69927 4.15328 3.64713 4.14833 3.59341 4.14833L 2.16125 4.14833C 0.969524 4.14833 0 5.3004 0 6.71635L 0 8.7981L 0.00445263 8.83019L 0.125104 8.87542C 1.03746 9.21388 1.85172 9.36988 2.55897 9.41903L 2.55897 8.79042C 2.55926 7.41169 3.33401 6.24476 4.39359 5.87013Z"/>
    </defs>
</svg>
