<?xml version="1.0" encoding="utf-8"?>
<!-- Generator: Adobe Illustrator 19.1.0, SVG Export Plug-In . SVG Version: 6.00 Build 0)  -->
<svg version="1.1" id="Calque_1" xmlns="http://www.w3.org/2000/svg" xmlns:xlink="http://www.w3.org/1999/xlink" x="0px" y="0px"
	 viewBox="-57 44 268 425" style="enable-background:new -57 44 268 425;" xml:space="preserve">
<style type="text/css">
	.st0{fill:#947148;}
	.st1{fill:#1C1C1C;}
	.st2{clip-path:url(#SVGID_2_);}
	.st3{fill:none;stroke:#FFFFFF;stroke-width:2;}
	.st4{fill:#AD3028;fill-opacity:0.3;}
	.st5{fill:#27AE60;fill-opacity:0.3;}
	.st6{fill:#2F80ED;fill-opacity:0.3;}
	.st7{fill:none;stroke:#FFFFFF;stroke-width:3;}
</style>
<path class="st0" d="M-23.6,44.3h201.2c18.2,0,33,14.8,33,33v357.7c0,18.2-14.8,33-33,33H-23.6c-18.2,0-33-14.8-33-33V77.3
	C-56.6,59.1-41.8,44.3-23.6,44.3z"/>
<path class="st1" d="M-20.2,71.3h194.8c6.6,0,12,5.4,12,12v345.9c0,6.6-5.4,12-12,12H-20.2c-6.6,0-12-5.4-12-12V83.3
	C-32.2,76.6-26.9,71.3-20.2,71.3z"/>
<g>
	<defs>
		<rect id="SVGID_1_" x="-32.2" y="72.1" width="218.8" height="369.1"/>
	</defs>
	<clipPath id="SVGID_2_">
		<use xlink:href="#SVGID_1_"  style="overflow:visible;"/>
	</clipPath>
	<g class="st2">
		<circle class="st3" cx="78.5" cy="258.1" r="46.5"/>
		<line class="st3" x1="-32.2" y1="259.6" x2="277.8" y2="258.6"/>
		<rect x="29" y="403.1" class="st3" width="99" height="64"/>
		<path class="st3" d="M56.3,402.1c6.2-19.1,37.7-19,44.4,0"/>
		<path class="st3" d="M102.7,114.8c-6.2,19.1-37.7,19-44.4,0"/>
		<rect x="29" y="50.1" class="st3" width="99" height="64"/>
		<rect x="-30.2" y="112.9" class="st4" width="216.8" height="82.1"/>
		<rect x="-32.2" y="317.9" class="st5" width="216.8" height="82.1"/>
		<rect x="-29.9" y="195" class="st6" width="216.8" height="123"/>
	</g>
</g>
<rect x="-30.7" y="72.8" class="st7" width="215.8" height="366.9"/>
</svg>
