<svg width="182" height="230" viewBox="0 0 182 230" fill="none" xmlns="http://www.w3.org/2000/svg">
    <path d="M175 139.07H0V77.53C0 41.4549 33.288 -2.04736 97.0109 0.0747066C147.989 1.77236 170.245 52.4189 175 77.53V139.07Z" transform="translate(3.48987 89.8607)" fill="#EB5757" stroke="#EB5757"/>
    <path d="M37.5 0C33.3333 0 15.4603 14.7842 9.375 24.6046C2.0833 36.3721 0 41.7209 0 51.3488C0 59.0511 0 97.3488 0 118.744" transform="translate(167.032 111.256) scale(-1 1)" stroke="white" stroke-width="28"/>
    <path d="M37.5 0C33.3333 0 15.4603 14.7842 9.375 24.6046C2.0833 36.3721 0 41.7209 0 51.3488C0 59.0511 0 97.3488 0 118.744" transform="translate(14.9481 111.256)" stroke="white" stroke-width="28"/>
    <ellipse cx="59.375" cy="60.9767" rx="59.375" ry="60.9767" transform="translate(28.4897)" fill="#E8DF0E"/>
    <path d="M0 4.27906C7.29167 10.6977 25 23.5348 37.5 23.5348C53.125 23.5348 66.6667 20.3255 72.9167 16.0465C77.9167 12.6232 86.8056 3.92247 90.625 0" transform="translate(44.1151 99.4885)" stroke="#FAFAFA" stroke-width="10"/>
</svg>
