<svg width="64" height="30" viewBox="0 0 64 30" version="1.1" xmlns="http://www.w3.org/2000/svg" xmlns:xlink="http://www.w3.org/1999/xlink">
    <title>4</title>
    <desc>Created using Figma</desc>
    <g id="Canvas" transform="translate(153 -159)">
        <g id="FC5 coin 3/4">
            <g id="Vector">
                <use xlink:href="#path0_fill" transform="translate(-151.4 171)" fill="#595555"/>
                <use xlink:href="#path1_stroke" transform="translate(-151.4 171)" fill="#595555"/>
            </g>
            <g id="Canvas">
                <g id="Coin">
                    <g id="Ellipse">
                        <g id="Vector">
                            <use xlink:href="#path2_fill" transform="translate(-153 159)" fill="#F7F2F2"/>
                        </g>
                        <mask id="mask0_alpha" mask-type="alpha">
                            <g id="mask0 outline ins">
                                <g id="Vector">
                                    <use xlink:href="#path2_fill" transform="translate(-153 159)" fill="#FFFFFF"/>
                                </g>
                            </g>
                        </mask>
                        <g id="Group" mask="url(#mask0_alpha)">
                            <g id="Vector">
                                <use xlink:href="#path3_fill" transform="translate(-156.2 157.72)" fill="#595555"/>
                            </g>
                        </g>
                    </g>
                    <g id="Ellipse">
                        <g id="Vector">
                            <use xlink:href="#path4_fill" transform="translate(-148.2 160.92)" fill="#F7F2F2"/>
                        </g>
                        <mask id="mask1_alpha" mask-type="alpha">
                            <g id="mask1 outline ins">
                                <g id="Vector">
                                    <use xlink:href="#path4_fill" transform="translate(-148.2 160.92)" fill="#FFFFFF"/>
                                </g>
                            </g>
                        </mask>
                        <g id="Group" mask="url(#mask1_alpha)">
                            <g id="Vector">
                                <use xlink:href="#path5_fill" transform="translate(-149.8 160.28)" fill="#595555"/>
                            </g>
                        </g>
                    </g>
                    <g id="Vector">
                        <g id="Vector">
                            <use xlink:href="#path6_fill" transform="translate(-117.8 166.68)" fill="#595555"/>
                        </g>
                    </g>
                    <g id="Vector">
                        <g id="Vector">
                            <use xlink:href="#path7_fill" transform="translate(-130.6 172.44)" fill="#595555"/>
                        </g>
                    </g>
                    <g id="Vector">
                        <g id="Vector">
                            <use xlink:href="#path8_fill" transform="translate(-132.2 164.76)" fill="#595555"/>
                        </g>
                    </g>
                </g>
            </g>
        </g>
    </g>
    <defs>
        <path id="path0_fill" d="M 0 4C 0 17.6 54.4 22.4 60.8 4L 0 4Z"/>
        <path id="path1_stroke" d="M 60.8 4L 62.2167 4.49278L 62.3 4.25342L 62.3 4L 60.8 4ZM -1.5 4C -1.5 6.2466 -0.366358 8.17946 1.32775 9.7571C 3.01315 11.3266 5.34839 12.6425 8.04407 13.7182C 13.4441 15.873 20.6213 17.1939 27.9376 17.4987C 35.2554 17.8036 42.8423 17.0976 49.0582 15.1033C 55.2182 13.127 60.3839 9.76213 62.2167 4.49278L 59.3833 3.50722C 58.0161 7.43787 53.9818 10.373 48.1418 12.2467C 42.3577 14.1024 35.1446 14.7964 28.0624 14.5013C 20.9787 14.2061 14.1559 12.927 9.15593 10.9318C 6.65161 9.9325 4.68685 8.78587 3.37225 7.56165C 2.06636 6.34554 1.5 5.1534 1.5 4L -1.5 4ZM 1.5 4L 1.5 0L -1.5 0L -1.5 4L 1.5 4ZM 62.3 4L 62.3 0L 59.3 0L 59.3 4L 62.3 4ZM 0 5.5L 60.8 5.5L 60.8 2.5L 0 2.5L 0 5.5Z"/>
        <path id="path2_fill" d="M 64 12.8C 64 19.8692 49.6731 25.6 32 25.6C 14.3269 25.6 0 19.8692 0 12.8C 0 5.73076 14.3269 0 32 0C 49.6731 0 64 5.73076 64 12.8Z"/>
        <path id="path3_fill" d="M 64 14.08C 64 20.4423 51.1058 25.6 35.2 25.6L 35.2 28.16C 54.6405 28.16 70.4 21.8562 70.4 14.08L 64 14.08ZM 35.2 25.6C 19.2942 25.6 6.4 20.4423 6.4 14.08L 0 14.08C 0 21.8562 15.7596 28.16 35.2 28.16L 35.2 25.6ZM 6.4 14.08C 6.4 7.7177 19.2942 2.56 35.2 2.56L 35.2 0C 15.7596 0 0 6.30383 0 14.08L 6.4 14.08ZM 35.2 2.56C 51.1058 2.56 64 7.7177 64 14.08L 70.4 14.08C 70.4 6.30383 54.6405 0 35.2 0L 35.2 2.56Z"/>
        <path id="path4_fill" d="M 54.4 10.88C 54.4 16.8888 42.2221 21.76 27.2 21.76C 12.1779 21.76 0 16.8888 0 10.88C 0 4.87114 12.1779 0 27.2 0C 42.2221 0 54.4 4.87114 54.4 10.88Z"/>
        <path id="path5_fill" d="M 54.4 11.52C 54.4 17.1754 42.9386 21.76 28.8 21.76L 28.8 23.04C 44.7058 23.04 57.6 17.8823 57.6 11.52L 54.4 11.52ZM 28.8 21.76C 14.6615 21.76 3.2 17.1754 3.2 11.52L 0 11.52C 0 17.8823 12.8942 23.04 28.8 23.04L 28.8 21.76ZM 3.2 11.52C 3.2 5.8646 14.6615 1.28 28.8 1.28L 28.8 0C 12.8942 0 0 5.15768 0 11.52L 3.2 11.52ZM 28.8 1.28C 42.9386 1.28 54.4 5.8646 54.4 11.52L 57.6 11.52C 57.6 5.15768 44.7058 0 28.8 0L 28.8 1.28Z"/>
        <path id="path6_fill" d="M 11.2896 7.07584C 10.7605 7.1168 10.0949 7.14752 9.2928 7.168C 8.50773 7.19533 7.77386 7.20896 7.0912 7.20896C 4.97493 7.20896 3.4304 7.1168 2.4576 6.93248C 1.4848 6.74816 0.827728 6.41363 0.4864 5.92896C 0.162128 5.43744 2.89677e-17 4.66259 2.89677e-17 3.60448C 2.89677e-17 2.55315 0.162128 1.78176 0.4864 1.29024C 0.827728 0.79872 1.4848 0.4608 2.4576 0.27648C 3.4304 0.0921601 4.97493 -2.76833e-15 7.0912 -2.76833e-15C 7.79093 -2.76833e-15 8.5248 0.0136513 9.2928 0.0409601C 10.0608 0.0682689 10.6923 0.105811 11.1872 0.1536L 11.1872 0.9216C 9.9072 0.853331 8.7296 0.8192 7.6544 0.8192C 5.8624 0.8192 4.608 0.873811 3.8912 0.98304C 3.19146 1.09227 2.73066 1.32779 2.5088 1.6896C 2.28693 2.05139 2.176 2.68973 2.176 3.60448C 2.176 4.51923 2.28693 5.15757 2.5088 5.51936C 2.73066 5.88115 3.19146 6.11667 3.8912 6.22592C 4.608 6.33517 5.8624 6.38976 7.6544 6.38976C 8.96853 6.38976 10.1803 6.35565 11.2896 6.28736L 11.2896 7.07584Z"/>
        <path id="path7_fill" d="M 7.24338e-16 6.18496C 2.08214 6.26688 3.78027 6.30784 5.0944 6.30784C 6.39147 6.30784 7.36427 6.27027 8.0128 6.1952C 8.6784 6.11328 9.13067 5.97677 9.3696 5.7856C 9.6256 5.59443 9.7536 5.31795 9.7536 4.95616C 9.7536 4.56019 9.61707 4.27347 9.344 4.096C 9.088 3.91853 8.61867 3.80243 7.936 3.74784C 7.2704 3.6864 6.21227 3.65568 4.7616 3.65568C 3.5328 3.65568 2.01387 3.70003 0.2048 3.7888L 0.2048 -4.00786e-16L 10.6752 -4.00786e-16L 10.6752 0.82944L 2.2272 0.82944L 2.2272 2.92864C 3.456 2.8672 4.7616 2.83648 6.144 2.83648C 7.76534 2.83648 8.99414 2.91155 9.8304 3.06176C 10.6667 3.20512 11.2299 3.42016 11.52 3.70688C 11.8272 3.98675 11.9808 4.36909 11.9808 4.85376C 11.9808 5.43405 11.7931 5.88461 11.4176 6.20544C 11.0592 6.52627 10.4021 6.76179 9.4464 6.912C 8.49067 7.05536 7.09974 7.12704 5.2736 7.12704C 4.4544 7.12704 3.54134 7.10995 2.5344 7.07584C 1.54454 7.04173 0.699744 6.99731 7.24338e-16 6.94272L 7.24338e-16 6.18496Z"/>
        <path id="path8_fill" d="M 0 7.04512L 0 0L 10.9568 0L 10.9568 0.8192L 2.2016 0.8192L 2.2016 3.23584L 9.984 3.23584L 9.984 4.06528L 2.2016 4.06528L 2.2016 7.04512L 0 7.04512Z"/>
    </defs>
</svg>