<svg width="16" height="16" viewBox="0 0 16 16" version="1.1" xmlns="http://www.w3.org/2000/svg" xmlns:xlink="http://www.w3.org/1999/xlink">
    <title>Coin</title>
    <desc>Created using Figma</desc>
    <g id="Canvas" transform="translate(-141 -2)">
        <g id="Coin">
            <g id="Ellipse">
                <g id="Vector">
                    <use xlink:href="#path0_fill" transform="translate(141 2)" fill="#F7F2F2"/>
                </g>
                <mask id="mask0_alpha" mask-type="alpha">
                    <g id="mask0 outline ins">
                        <g id="Vector">
                            <use xlink:href="#path0_fill" transform="translate(141 2)" fill="#FFFFFF"/>
                        </g>
                    </g>
                </mask>
                <g id="Group" mask="url(#mask0_alpha)">
                    <g id="Vector">
                        <use xlink:href="#path1_fill" transform="translate(140.2 1.2)" fill="#595555"/>
                    </g>
                </g>
            </g>
            <g id="Ellipse">
                <g id="Vector">
                    <use xlink:href="#path2_fill" transform="translate(142.2 3.2)" fill="#F7F2F2"/>
                </g>
                <mask id="mask1_alpha" mask-type="alpha">
                    <g id="mask1 outline ins">
                        <g id="Vector">
                            <use xlink:href="#path2_fill" transform="translate(142.2 3.2)" fill="#FFFFFF"/>
                        </g>
                    </g>
                </mask>
                <g id="Group" mask="url(#mask1_alpha)">
                    <g id="Vector">
                        <use xlink:href="#path3_fill" transform="translate(141.8 2.8)" fill="#595555"/>
                    </g>
                </g>
            </g>
            <g id="Vector">
                <g id="Vector">
                    <use xlink:href="#path4_fill" transform="translate(149.8 6.8)" fill="#595555"/>
                </g>
            </g>
            <g id="Vector">
                <g id="Vector">
                    <use xlink:href="#path5_fill" transform="translate(146.6 10.4)" fill="#595555"/>
                </g>
            </g>
            <g id="Vector">
                <g id="Vector">
                    <use xlink:href="#path6_fill" transform="translate(146.2 5.6)" fill="#595555"/>
                </g>
            </g>
        </g>
    </g>
    <defs>
        <path id="path0_fill" d="M 16 8C 16 12.4183 12.4183 16 8 16C 3.58172 16 0 12.4183 0 8C 0 3.58172 3.58172 0 8 0C 12.4183 0 16 3.58172 16 8Z"/>
        <path id="path1_fill" d="M 16 8.8C 16 12.7764 12.7764 16 8.8 16L 8.8 17.6C 13.6601 17.6 17.6 13.6601 17.6 8.8L 16 8.8ZM 8.8 16C 4.82356 16 1.6 12.7764 1.6 8.8L 0 8.8C 0 13.6601 3.9399 17.6 8.8 17.6L 8.8 16ZM 1.6 8.8C 1.6 4.82356 4.82356 1.6 8.8 1.6L 8.8 0C 3.9399 0 0 3.9399 0 8.8L 1.6 8.8ZM 8.8 1.6C 12.7764 1.6 16 4.82356 16 8.8L 17.6 8.8C 17.6 3.9399 13.6601 0 8.8 0L 8.8 1.6Z"/>
        <path id="path2_fill" d="M 13.6 6.8C 13.6 10.5555 10.5555 13.6 6.8 13.6C 3.04446 13.6 0 10.5555 0 6.8C 0 3.04446 3.04446 0 6.8 0C 10.5555 0 13.6 3.04446 13.6 6.8Z"/>
        <path id="path3_fill" d="M 13.6 7.2C 13.6 10.7346 10.7346 13.6 7.2 13.6L 7.2 14.4C 11.1764 14.4 14.4 11.1764 14.4 7.2L 13.6 7.2ZM 7.2 13.6C 3.66538 13.6 0.8 10.7346 0.8 7.2L 0 7.2C 0 11.1764 3.22355 14.4 7.2 14.4L 7.2 13.6ZM 0.8 7.2C 0.8 3.66538 3.66538 0.8 7.2 0.8L 7.2 0C 3.22355 0 0 3.22355 0 7.2L 0.8 7.2ZM 7.2 0.8C 10.7346 0.8 13.6 3.66538 13.6 7.2L 14.4 7.2C 14.4 3.22355 11.1764 0 7.2 0L 7.2 0.8Z"/>
        <path id="path4_fill" d="M 2.8224 4.4224C 2.69013 4.448 2.52373 4.4672 2.3232 4.48C 2.12693 4.49708 1.94346 4.5056 1.7728 4.5056C 1.24373 4.5056 0.8576 4.448 0.6144 4.3328C 0.3712 4.2176 0.206932 4.00852 0.1216 3.7056C 0.040532 3.3984 7.24192e-18 2.91412 7.24192e-18 2.2528C 7.24192e-18 1.59572 0.040532 1.1136 0.1216 0.8064C 0.206932 0.4992 0.3712 0.288 0.6144 0.1728C 0.8576 0.0576001 1.24373 -1.7302e-15 1.7728 -1.7302e-15C 1.94773 -1.7302e-15 2.1312 0.00853206 2.3232 0.0256001C 2.5152 0.0426681 2.67306 0.0661321 2.7968 0.0960001L 2.7968 0.576C 2.4768 0.533332 2.1824 0.512 1.9136 0.512C 1.4656 0.512 1.152 0.546132 0.9728 0.6144C 0.797864 0.682668 0.682664 0.829868 0.6272 1.056C 0.571732 1.28212 0.544 1.68108 0.544 2.2528C 0.544 2.82452 0.571732 3.22348 0.6272 3.4496C 0.682664 3.67572 0.797864 3.82292 0.9728 3.8912C 1.152 3.95948 1.4656 3.9936 1.9136 3.9936C 2.24213 3.9936 2.54506 3.97228 2.8224 3.9296L 2.8224 4.4224Z"/>
        <path id="path5_fill" d="M 1.81084e-16 3.8656C 0.520536 3.9168 0.945068 3.9424 1.2736 3.9424C 1.59787 3.9424 1.84107 3.91892 2.0032 3.872C 2.1696 3.8208 2.28267 3.73548 2.3424 3.616C 2.4064 3.49652 2.4384 3.32372 2.4384 3.0976C 2.4384 2.85012 2.40427 2.67092 2.336 2.56C 2.272 2.44908 2.15467 2.37652 1.984 2.3424C 1.8176 2.304 1.55307 2.2848 1.1904 2.2848C 0.8832 2.2848 0.503468 2.31252 0.0512 2.368L 0.0512 -2.50491e-16L 2.6688 -2.50491e-16L 2.6688 0.5184L 0.5568 0.5184L 0.5568 1.8304C 0.864 1.792 1.1904 1.7728 1.536 1.7728C 1.94134 1.7728 2.24854 1.81972 2.4576 1.9136C 2.66667 2.0032 2.80747 2.1376 2.88 2.3168C 2.9568 2.49172 2.9952 2.73068 2.9952 3.0336C 2.9952 3.39628 2.94827 3.67788 2.8544 3.8784C 2.7648 4.07892 2.60054 4.22612 2.3616 4.32C 2.12267 4.4096 1.77494 4.4544 1.3184 4.4544C 1.1136 4.4544 0.885336 4.44372 0.6336 4.4224C 0.386136 4.40108 0.174936 4.37332 1.81084e-16 4.3392L 1.81084e-16 3.8656Z"/>
        <path id="path6_fill" d="M 0 4.4032L 0 0L 2.7392 0L 2.7392 0.512L 0.5504 0.512L 0.5504 2.0224L 2.496 2.0224L 2.496 2.5408L 0.5504 2.5408L 0.5504 4.4032L 0 4.4032Z"/>
    </defs>
</svg>