<svg width="303" height="591" viewBox="0 0 303 591" fill="none" xmlns="http://www.w3.org/2000/svg">
    <g filter="url(#filter0_dd)">
        <rect width="299" height="533" rx="24" transform="translate(2 54)" fill="#575757"/>
    </g>
    <g filter="url(#filter1_dd)">
        <rect width="268" height="476" transform="translate(17 71)" fill="#F7F7F7"/>
    </g>
    <path d="M4.95597 6.60017C4.5494 6.60017 4.14302 6.44335 3.83343 6.13099L0.465622 2.73347C-0.155207 2.10747 -0.155207 1.0955 0.465622 0.469499C1.0848 -0.156501 2.09152 -0.156501 2.71089 0.469499L6.0787 3.86702C6.69952 4.49302 6.69952 5.50499 6.0787 6.13099C5.76892 6.44335 5.36235 6.60017 4.95597 6.60017Z" transform="translate(197.003 73.0839) rotate(43.5688)" fill="#7383BF"/>
    <path d="M0.108864 86.0412C-0.602536 78.1495 2.19842 70.3491 7.75587 64.7454L71.9664 -1.06978e-07L85.4392 13.5851L21.2286 78.3305C15.6711 83.9342 7.93518 86.7585 0.108864 86.0412Z" transform="translate(155.665 6.28409) rotate(43.5688)" fill="#434C6D"/>
    <path d="M11.2276 17.0089L-1.74218e-06 5.68778L4.07116 1.58271C6.16401 -0.527571 9.5556 -0.527571 11.6468 1.58271L15.3401 5.30514C17.409 7.39291 17.409 10.776 15.3401 12.8622L11.2276 17.0089Z" transform="translate(211.761 53.3578) rotate(43.5688)" fill="#7383BF"/>
    <path d="M3.36781 35.0953L-2.09955e-06 31.6994L31.4376 7.43215e-07L34.8054 3.39586L3.36781 35.0953Z" transform="translate(182.34 58.2226) rotate(43.5688)" fill="#434C6D"/>
    <path d="M6.73726 53.2096L4.13209e-07 46.4165L46.0346 2.13956e-07L52.7702 6.79338L6.73726 53.2096Z" transform="translate(160.109 24.575) rotate(43.5688)" fill="#7383BF"/>
    <path d="M0.108864 21.5632C7.93537 22.2805 15.6713 19.4562 21.2288 13.8524L21.4939 13.5866C18.6358 12.2113 15.9476 10.3636 13.5817 7.97804C11.2159 5.59249 9.38342 2.88185 8.01954 -9.00867e-08L7.75587 0.267338C2.19842 5.87108 -0.602536 13.6715 0.108864 21.5632Z" transform="translate(111.225 53.0016) rotate(43.5688)" fill="#7383BF"/>
    <path d="M1.58816 5.46661C1.1816 5.46661 0.775212 5.30979 0.465622 4.99744C-0.155207 4.37144 -0.155207 3.35947 0.465622 2.73347L2.71089 0.4695C3.33172 -0.156501 4.33533 -0.156501 4.95615 0.4695C5.57698 1.0955 5.57698 2.10747 4.95615 2.73347L2.7107 4.99744C2.40111 5.30961 1.99473 5.46661 1.58816 5.46661Z" transform="translate(94.7676 64.8975) rotate(43.5688)" fill="#434C6D"/>
    <g filter="url(#filter2_d)">
        <rect width="81" height="34" transform="translate(108 49)" fill="#C4C4C4"/>
    </g>
    <path d="M4.8734 7.19987C3.74604 7.19987 2.54821 6.94276 1.0963 6.55698L0.423486 6.37815L0.0103321 2.21484C-0.0466466 1.64132 0.13336 1.09008 0.51721 0.662694C0.90106 0.235312 1.42736 4.47034e-10 1.99923 4.47034e-10H7.74745C8.31933 4.47034e-10 8.84586 0.235312 9.22959 0.662811C9.61332 1.09031 9.79345 1.64156 9.73635 2.21507L9.3232 6.37827L8.65038 6.5571C7.19836 6.94288 6.0003 7.19987 4.8734 7.19987Z" transform="translate(189.127 91.8843)" fill="#892121"/>
    <path d="M4.99656 12.5137L-1.41947e-08 13.4499L5.86659 1.43051e-07L12.554 1.85285L7.08674 16.3421L4.99656 12.5137Z" transform="translate(176.067 133.858)" fill="#892121"/>
    <path d="M1.73175e-06 2.40656L7.28047 -6.86644e-07L13.04 14.4315L8.04282 13.4961L5.9531 17.3237L1.73175e-06 2.40656Z" transform="translate(198.894 132.876)" fill="#892121"/>
    <path d="M30.8451 39.7597C29.5108 39.7597 28.0721 39.3686 26.5487 38.9547C25.0612 38.5505 23.5229 38.1325 22.1225 38.1325C20.7222 38.1325 19.184 38.5505 17.6964 38.9547C16.1731 39.3686 14.7342 39.7597 13.4 39.7597C12.4819 39.7597 11.7158 39.5733 11.0582 39.1899C9.14681 38.0756 8.52563 35.6773 7.86793 33.1382C7.48908 31.6753 7.09721 30.1625 6.43312 29.006C5.80124 27.9055 4.72329 26.8483 3.68093 25.8262C1.87134 24.0514 -1.27752e-07 22.2162 -1.27752e-07 19.8799C-1.27752e-07 17.5434 1.87134 15.7085 3.68117 13.9337C4.72364 12.9113 5.8017 11.8542 6.43335 10.7537C7.09744 9.59717 7.4892 8.0844 7.86817 6.62155C8.52598 4.08234 9.14728 1.68422 11.0584 0.569882C11.7162 0.186445 12.4822 -1.07288e-08 13.4001 -1.07288e-08C14.7344 -1.07288e-08 16.1732 0.391054 17.6966 0.804959C19.1841 1.20926 20.7223 1.62726 22.1227 1.62726C23.523 1.62726 25.0612 1.20926 26.5488 0.805077C28.0722 0.391171 29.5111 0.000117112 30.8453 0.000117112C31.7634 0.000117112 32.5294 0.186562 33.1869 0.569882C35.0982 1.68422 35.7194 4.08245 36.3771 6.62155C36.756 8.08452 37.1478 9.59717 37.8119 10.7538C38.4438 11.8543 39.5218 12.9115 40.5641 13.9336C42.3741 15.7084 44.2454 17.5435 44.2454 19.8799C44.2454 22.2164 42.3741 24.0513 40.5642 25.8261C39.5218 26.8484 38.4437 27.9056 37.8121 29.0061C37.148 30.1626 36.7562 31.6754 36.3772 33.1382C35.7194 35.6774 35.0981 38.0756 33.187 39.1899C32.5292 39.5733 31.7632 39.7597 30.8451 39.7597Z" transform="translate(171.877 97.3306)" fill="#C13530"/>
    <path d="M32.7768 31.7535C31.3765 31.7535 29.8383 32.1715 28.3507 32.5757C26.8274 32.9896 25.3885 33.3807 24.0543 33.3807C23.1362 33.3807 22.3702 33.1944 21.7125 32.8109C19.8011 31.6966 19.1799 29.2983 18.5222 26.7592C18.1434 25.2963 17.7515 23.7835 17.0874 22.627C16.4555 21.5265 15.3776 20.4693 14.3352 19.4472C12.5254 17.6724 10.6541 15.8373 10.6541 13.5009C10.6541 11.1644 12.5254 9.32951 14.3352 7.55471C15.3777 6.53237 16.4558 5.47522 17.0874 4.37472C17.6408 3.41085 18.005 2.19961 18.3304 0.975936C18.1185 0.919451 17.907 0.862147 17.6966 0.804959C16.1733 0.391054 14.7346 -1.07288e-08 13.4001 -1.07288e-08C12.482 -1.07288e-08 11.716 0.186445 11.0584 0.569882C9.14728 1.68422 8.52598 4.08234 7.86817 6.62155C7.48932 8.08452 7.09744 9.59717 6.43335 10.7537C5.80159 11.8542 4.72353 12.9113 3.68117 13.9337C1.87134 15.7084 -6.38761e-08 17.5434 -6.38761e-08 19.8799C-6.38761e-08 22.2162 1.87134 24.0513 3.68117 25.8262C4.72364 26.8484 5.8017 27.9055 6.43335 29.006C7.09744 30.1625 7.4892 31.6753 7.86817 33.1382C8.52598 35.6773 9.14716 38.0754 11.0584 39.1899C11.7162 39.5733 12.4822 39.7598 13.4002 39.7597C14.7344 39.7597 16.1733 39.3686 17.6966 38.9547C19.1841 38.5505 20.7223 38.1325 22.1227 38.1325C23.523 38.1325 25.0612 38.5505 26.5489 38.9547C28.0723 39.3686 29.5111 39.7597 30.8453 39.7597C31.7635 39.7597 32.5294 39.5732 33.1871 39.1898C35.0982 38.0754 35.7195 35.6773 36.3774 33.1381C36.4405 32.8944 36.5041 32.6493 36.5691 32.4046C35.2828 32.0617 33.979 31.7535 32.7768 31.7535Z" transform="translate(171.877 97.3306)" fill="#B22626"/>
    <path d="M15.1035 30.442C6.77534 30.442 -2.48407e-07 23.6138 -2.48407e-07 15.221C-2.48407e-07 6.82815 6.77534 5.00678e-08 15.1035 5.00678e-08C23.4317 5.00678e-08 30.207 6.82815 30.207 15.221C30.207 23.6138 23.4316 30.442 15.1035 30.442Z" transform="translate(178.896 101.989)" fill="#892121"/>
    <path d="M42.0532 19.6304C41.0074 18.6049 40.0196 17.6361 39.4485 16.6415C38.8439 15.5886 38.4842 14.1995 38.1032 12.7286C37.429 10.1258 36.7319 7.43424 34.5036 6.13511C32.7092 5.08886 30.5879 5.41136 28.4621 5.94679L28.7359 3.18691C28.8166 2.37351 28.5507 1.55953 28.0066 0.953553C27.4625 0.34746 26.6852 0 25.8742 0H20.126C19.3149 0 18.5377 0.34746 17.9934 0.953553C17.4492 1.55965 17.1834 2.37363 17.2641 3.18691L17.5379 5.94679C15.4124 5.41136 13.291 5.08886 11.4964 6.13511C9.26821 7.43436 8.57098 10.1258 7.89677 12.7286C7.51571 14.1995 7.15593 15.5886 6.55149 16.6415C5.98043 17.6362 4.99249 18.6049 3.94676 19.6305C2.0967 21.4447 8.51681e-08 23.5007 8.51681e-08 26.2105C8.51681e-08 28.9202 2.09681 30.9763 3.94676 32.7905C4.99261 33.816 5.98043 34.7848 6.55149 35.7794C7.15605 36.8323 7.51583 38.2215 7.89677 39.6923C8.24794 41.0484 8.6061 42.4281 9.18309 43.623L4.29502 55.871C4.167 56.1918 4.22258 56.5572 4.4398 56.8246C4.65701 57.092 5.00156 57.2189 5.33878 57.1559L9.60055 56.3583L11.3208 59.5092C11.4867 59.813 11.8031 59.9999 12.1442 59.9999C12.1632 59.9999 12.1821 59.9994 12.2011 59.9981C12.5636 59.976 12.8811 59.7455 13.0166 59.406L18.2519 46.2878C18.4356 46.2386 18.6192 46.1888 18.8024 46.139C20.2347 45.7497 21.7161 45.3473 23.0001 45.3473C24.2841 45.3473 25.7654 45.7498 27.1978 46.139C27.3809 46.1888 27.5644 46.2385 27.7481 46.2878L32.9835 59.4061C33.1191 59.7456 33.4366 59.9762 33.799 59.9982C33.8181 59.9994 33.837 60 33.8559 60C34.1969 60 34.5135 59.8132 34.6793 59.5093L36.3996 56.3584L40.6613 57.156C40.9987 57.2191 41.3431 57.0921 41.5603 56.8247C41.7775 56.5572 41.833 56.1918 41.7051 55.8711L36.8167 43.6231C37.3938 42.4282 37.7517 41.0485 38.103 39.6924C38.4841 38.2216 38.8438 36.8324 39.4483 35.7795C40.0193 34.7848 41.0073 33.8161 42.053 32.7905C43.9033 30.9762 46 28.9202 46 26.2105C46 23.5007 43.9032 21.4446 42.0532 19.6304ZM19.3871 2.22503C19.5784 2.01211 19.8408 1.89468 20.1258 1.89468H25.874C26.159 1.89468 26.4213 2.01199 26.6126 2.22503C26.8039 2.43808 26.8937 2.71277 26.8652 2.99859L26.5212 6.46417C25.3057 6.78725 24.0828 7.07366 22.9999 7.07366C21.9171 7.07366 20.6942 6.78725 19.4785 6.46417L19.1346 2.99847C19.1063 2.71277 19.1959 2.43796 19.3871 2.22503ZM12.0121 56.845L10.9202 54.8451C10.7249 54.4872 10.3242 54.2959 9.92509 54.3703L6.67789 54.9782L10.4653 45.4881C10.7683 45.7908 11.1087 46.0596 11.4965 46.2858C12.3563 46.7871 13.2913 46.9744 14.2658 46.9744C14.8389 46.9744 15.4259 46.9091 16.0191 46.8055L12.0121 56.845ZM39.3222 54.9782L36.075 54.3703C35.6762 54.2958 35.2752 54.4872 35.0799 54.8451L33.988 56.845L29.9813 46.8054C31.5834 47.085 33.1383 47.0819 34.5039 46.2856C34.8916 46.0595 35.2322 45.7905 35.5351 45.4879L39.3222 54.9782ZM40.7423 31.4323C39.651 32.5026 38.5224 33.6092 37.8214 34.8305C37.0894 36.1054 36.6802 37.6857 36.2843 39.2136C35.6809 41.5427 35.1112 43.7426 33.5623 44.6458C32.0877 45.5055 29.9502 44.9247 27.6872 44.3097C26.1364 43.8883 24.5331 43.4526 23.0001 43.4526C21.467 43.4526 19.8637 43.8883 18.3129 44.3097C16.0499 44.9247 13.9126 45.5055 12.4379 44.6458C10.889 43.7427 10.3191 41.5427 9.71578 39.2137C9.31996 37.6857 8.91076 36.1055 8.17876 34.8305C7.47769 33.6093 6.34916 32.5026 5.25785 31.4326C3.52093 29.7292 1.88018 28.1203 1.88018 26.2106C1.88018 24.3009 3.52093 22.692 5.25785 20.9887C6.34916 19.9184 7.47769 18.8118 8.17876 17.5905C8.91076 16.3156 9.31996 14.7354 9.71578 13.2075C10.3192 10.8784 10.889 8.67842 12.4379 7.77526C12.9725 7.46354 13.5942 7.3412 14.2774 7.3412C15.4788 7.3412 16.8704 7.71936 18.3129 8.11135C19.8637 8.53276 21.467 8.96846 23.0001 8.96846C24.5331 8.96846 26.1364 8.53276 27.6872 8.11135C29.9502 7.49647 32.0878 6.91569 33.5623 7.77526C35.1112 8.6783 35.6811 10.8784 36.2843 13.2074C36.6802 14.7354 37.0894 16.3155 37.8214 17.5905C38.5224 18.8117 39.651 19.9184 40.7423 20.9885C42.4792 22.6918 44.1199 24.3008 44.1199 26.2105C44.1199 28.1201 42.4792 29.729 40.7423 31.4323Z" transform="translate(171 91)" fill="black"/>
    <path d="M25.2851 4.09608C24.9 4.4842 24.9262 5.11561 25.3334 5.48006C28.3394 8.17021 30.2007 12.1322 30.0759 16.5205C29.8634 23.9869 23.8634 30.0613 16.4558 30.3078C8.31212 30.5788 1.62876 23.8496 1.88737 15.6449C2.12075 8.24029 8.04711 2.21042 15.3921 1.9069C17.4128 1.82346 19.3447 2.17186 21.1058 2.86702C21.4534 3.00424 21.8479 2.92655 22.1118 2.66065L22.1259 2.64635C22.5983 2.17034 22.4358 1.35846 21.8143 1.1119C19.8776 0.343623 17.7577 -0.0544629 15.5403 0.00600571C7.15836 0.234872 0.0837069 7.4931 0.000797186 15.943C-0.0889732 25.0793 7.41081 32.5066 16.5227 32.2013C24.8762 31.9215 31.6566 25.1032 31.9518 16.6854C32.1278 11.6664 30.011 7.13052 26.5766 4.05928C26.2036 3.72588 25.6377 3.74076 25.2851 4.09608Z" transform="translate(178.019 101.105)" fill="black"/>
    <path d="M13.1608 0.947342C13.1608 0.424101 12.7398 2.86102e-08 12.2208 2.86102e-08C5.48216 2.86102e-08 6.81345e-07 5.52479 6.81345e-07 12.3158C6.81345e-07 12.839 0.420945 13.2631 0.940031 13.2631C1.45923 13.2631 1.88006 12.8389 1.88006 12.3158C1.88006 6.56952 6.51882 1.8948 12.2206 1.8948C12.7398 1.89468 13.1608 1.47047 13.1608 0.947342Z" transform="translate(181.779 104.895)" fill="black"/>
    <path d="M0.940032 11.3685C0.420829 11.3685 8.65876e-07 11.7927 8.65876e-07 12.3158C8.65876e-07 12.8389 0.420945 13.2631 0.940032 13.2631C7.67863 13.2631 13.1608 7.73835 13.1608 0.947342C13.1608 0.424101 12.7398 3.43322e-07 12.2207 3.43322e-07C11.7017 3.43322e-07 11.2807 0.424218 11.2807 0.947342C11.2806 6.69374 6.64185 11.3685 0.940032 11.3685Z" transform="translate(193.06 116.263)" fill="black"/>
    <path d="M42.0532 19.6304C41.0074 18.6049 40.0196 17.6361 39.4485 16.6415C38.8439 15.5886 38.4842 14.1995 38.1032 12.7286C37.429 10.1258 36.7319 7.43424 34.5036 6.13511C32.7092 5.08886 30.5879 5.41136 28.4621 5.94679L28.7359 3.18691C28.8166 2.37351 28.5507 1.55953 28.0066 0.953553C27.4625 0.34746 26.6852 0 25.8742 0H20.126C19.3149 0 18.5377 0.34746 17.9934 0.953553C17.4492 1.55965 17.1834 2.37363 17.2641 3.18691L17.5379 5.94679C15.4124 5.41136 13.291 5.08886 11.4964 6.13511C9.26821 7.43436 8.57098 10.1258 7.89677 12.7286C7.51571 14.1995 7.15593 15.5886 6.55149 16.6415C5.98043 17.6362 4.99249 18.6049 3.94676 19.6305C2.0967 21.4447 8.51681e-08 23.5007 8.51681e-08 26.2105C8.51681e-08 28.9202 2.09681 30.9763 3.94676 32.7905C4.99261 33.816 5.98043 34.7848 6.55149 35.7794C7.15605 36.8323 7.51583 38.2215 7.89677 39.6923C8.24794 41.0484 8.6061 42.4281 9.18309 43.623L4.29502 55.871C4.167 56.1918 4.22258 56.5572 4.4398 56.8246C4.65701 57.092 5.00156 57.2189 5.33878 57.1559L9.60055 56.3583L11.3208 59.5092C11.4867 59.813 11.8031 59.9999 12.1442 59.9999C12.1632 59.9999 12.1821 59.9994 12.2011 59.9981C12.5636 59.976 12.8811 59.7455 13.0166 59.406L18.2519 46.2878C18.4356 46.2386 18.6192 46.1888 18.8024 46.139C20.2347 45.7497 21.7161 45.3473 23.0001 45.3473C24.2841 45.3473 25.7653 45.7498 27.1978 46.139C27.3809 46.1888 27.5644 46.2385 27.7481 46.2878L32.9835 59.4061C33.1191 59.7456 33.4366 59.9762 33.799 59.9982C33.8181 59.9994 33.837 60 33.8559 60C34.1969 60 34.5135 59.8132 34.6793 59.5093L36.3996 56.3584L40.6613 57.156C40.9987 57.2191 41.3431 57.0921 41.5603 56.8247C41.7775 56.5572 41.833 56.1918 41.7051 55.8711L36.8167 43.6231C37.3938 42.4282 37.7517 41.0485 38.103 39.6924C38.4841 38.2216 38.8438 36.8324 39.4483 35.7795C40.0193 34.7848 41.0073 33.8161 42.053 32.7905C43.9033 30.9762 46 28.9202 46 26.2105C46 23.5007 43.9032 21.4446 42.0532 19.6304ZM19.3871 2.22503C19.5784 2.01211 19.8408 1.89468 20.1258 1.89468H25.874C26.159 1.89468 26.4213 2.01199 26.6126 2.22503C26.8039 2.43796 26.8937 2.71277 26.8652 2.99859L26.5212 6.46417C25.3057 6.78725 24.0828 7.07366 22.9999 7.07366C21.9171 7.07366 20.6942 6.78725 19.4785 6.46417L19.1346 2.99847C19.1063 2.71277 19.1959 2.43796 19.3871 2.22503ZM12.0121 56.845L10.9202 54.8451C10.7249 54.4872 10.3242 54.2959 9.92498 54.3703L6.67778 54.9782L10.4652 45.4881C10.7681 45.7908 11.1086 46.0596 11.4964 46.2858C12.3562 46.7871 13.2911 46.9744 14.2657 46.9744C14.8387 46.9744 15.4257 46.9091 16.019 46.8055L12.0121 56.845ZM39.3222 54.9782L36.075 54.3703C35.6762 54.2958 35.2752 54.4872 35.0799 54.8451L33.988 56.845L29.9813 46.8054C31.5834 47.085 33.1383 47.0819 34.5039 46.2856C34.8916 46.0595 35.2322 45.7905 35.5351 45.4879L39.3222 54.9782ZM40.7423 31.4323C39.651 32.5026 38.5225 33.6092 37.8214 34.8305C37.0894 36.1054 36.6802 37.6857 36.2843 39.2136C35.6809 41.5427 35.1112 43.7426 33.5623 44.6458C32.0877 45.5055 29.9502 44.9247 27.6872 44.3097C26.1364 43.8883 24.5331 43.4526 23.0001 43.4526C21.467 43.4526 19.8637 43.8883 18.3129 44.3097C16.0499 44.9247 13.9126 45.5055 12.4379 44.6458C10.889 43.7427 10.3191 41.5427 9.71578 39.2137C9.31996 37.6857 8.91076 36.1055 8.17876 34.8305C7.47769 33.6093 6.34916 32.5026 5.25785 31.4326C3.52081 29.7292 1.88018 28.1203 1.88018 26.2106C1.88018 24.3009 3.52093 22.692 5.25785 20.9887C6.34916 19.9184 7.47757 18.8118 8.17876 17.5905C8.91076 16.3156 9.31996 14.7354 9.71578 13.2075C10.3192 10.8784 10.889 8.67842 12.4379 7.77526C12.9725 7.46354 13.5942 7.3412 14.2774 7.3412C15.4788 7.3412 16.8704 7.71936 18.3129 8.11135C19.8637 8.53276 21.467 8.96846 23.0001 8.96846C24.5331 8.96846 26.1364 8.53276 27.6872 8.11147C29.9502 7.49659 32.0878 6.91581 33.5623 7.77538C35.1112 8.67842 35.6811 10.8785 36.2843 13.2075C36.6802 14.7355 37.0894 16.3156 37.8214 17.5906C38.5224 18.8118 39.651 19.9186 40.7423 20.9886C42.4793 22.6919 44.1199 24.3009 44.1199 26.2106C44.1199 28.1201 42.4792 29.729 40.7423 31.4323Z" transform="translate(223 91)" fill="#636363"/>
    <path d="M26.5766 4.05928C26.2036 3.72576 25.6378 3.74076 25.2851 4.09608C24.9 4.4842 24.9262 5.1156 25.3334 5.48006C28.3394 8.17021 30.2007 12.1322 30.0759 16.5205C29.8634 23.9869 23.8634 30.0613 16.4558 30.3078C8.31212 30.5788 1.62876 23.8496 1.88737 15.6449C2.12075 8.24029 8.04711 2.21042 15.3921 1.9069C17.4128 1.82335 19.3447 2.17186 21.1058 2.86702C21.4534 3.00424 21.8479 2.92655 22.1118 2.66065L22.1259 2.64635C22.5983 2.17046 22.4358 1.35846 21.8143 1.1119C19.8776 0.343623 17.7577 -0.054463 15.5403 0.00600565C7.15836 0.234872 0.0837069 7.4931 0.000797249 15.943C-0.0889731 25.0793 7.41081 32.5066 16.5227 32.2013C24.8761 31.9215 31.6566 25.1032 31.9518 16.6854C32.1278 11.6664 30.011 7.13052 26.5766 4.05928Z" transform="translate(230.019 101.105)" fill="#C71212"/>
    <path d="M12.2208 9.29831e-08C5.48216 9.29831e-08 6.81345e-07 5.52479 6.81345e-07 12.3158C6.81345e-07 12.839 0.420945 13.2631 0.940031 13.2631C1.45923 13.2631 1.88006 12.8389 1.88006 12.3158C1.88006 6.56963 6.51882 1.8948 12.2206 1.8948C12.7398 1.8948 13.1607 1.47058 13.1607 0.947459C13.1608 0.424218 12.7398 9.29831e-08 12.2208 9.29831e-08Z" transform="translate(233.779 104.895)" fill="#C71212"/>
    <path d="M12.2206 -6.15119e-07C11.7014 -6.15119e-07 11.2806 0.424217 11.2806 0.947341C11.2806 6.69362 6.64185 11.3683 0.940032 11.3683C0.420829 11.3683 8.65876e-07 11.7926 8.65876e-07 12.3157C8.65876e-07 12.8389 0.420945 13.263 0.940032 13.263C7.67863 13.263 13.1608 7.73823 13.1608 0.947225C13.1607 0.424218 12.7398 -6.15119e-07 12.2206 -6.15119e-07Z" transform="translate(245.06 116.263)" fill="#C71212"/>
    <defs>
        <filter id="filter0_dd" x="0" y="52" width="303" height="539" filterUnits="userSpaceOnUse" color-interpolation-filters="sRGB">
            <feFlood flood-opacity="0" result="BackgroundImageFix"/>
            <feColorMatrix in="SourceAlpha" type="matrix" values="0 0 0 0 0 0 0 0 0 0 0 0 0 0 0 0 0 0 255 0"/>
            <feOffset dy="2"/>
            <feGaussianBlur stdDeviation="1"/>
            <feColorMatrix type="matrix" values="0 0 0 0 0 0 0 0 0 0 0 0 0 0 0 0 0 0 0.25 0"/>
            <feBlend mode="normal" in2="BackgroundImageFix" result="effect1_dropShadow"/>
            <feColorMatrix in="SourceAlpha" type="matrix" values="0 0 0 0 0 0 0 0 0 0 0 0 0 0 0 0 0 0 255 0"/>
            <feOffset/>
            <feGaussianBlur stdDeviation="1"/>
            <feColorMatrix type="matrix" values="0 0 0 0 0 0 0 0 0 0 0 0 0 0 0 0 0 0 0.12 0"/>
            <feBlend mode="normal" in2="effect1_dropShadow" result="effect2_dropShadow"/>
            <feBlend mode="normal" in="SourceGraphic" in2="effect2_dropShadow" result="shape"/>
        </filter>
        <filter id="filter1_dd" x="15" y="69" width="272" height="482" filterUnits="userSpaceOnUse" color-interpolation-filters="sRGB">
            <feFlood flood-opacity="0" result="BackgroundImageFix"/>
            <feColorMatrix in="SourceAlpha" type="matrix" values="0 0 0 0 0 0 0 0 0 0 0 0 0 0 0 0 0 0 255 0"/>
            <feOffset dy="2"/>
            <feGaussianBlur stdDeviation="1"/>
            <feColorMatrix type="matrix" values="0 0 0 0 0 0 0 0 0 0 0 0 0 0 0 0 0 0 0.25 0"/>
            <feBlend mode="normal" in2="BackgroundImageFix" result="effect1_dropShadow"/>
            <feColorMatrix in="SourceAlpha" type="matrix" values="0 0 0 0 0 0 0 0 0 0 0 0 0 0 0 0 0 0 255 0"/>
            <feOffset/>
            <feGaussianBlur stdDeviation="1"/>
            <feColorMatrix type="matrix" values="0 0 0 0 0 0 0 0 0 0 0 0 0 0 0 0 0 0 0.12 0"/>
            <feBlend mode="normal" in2="effect1_dropShadow" result="effect2_dropShadow"/>
            <feBlend mode="normal" in="SourceGraphic" in2="effect2_dropShadow" result="shape"/>
        </filter>
        <filter id="filter2_d" x="104" y="40" width="89" height="43" filterUnits="userSpaceOnUse" color-interpolation-filters="sRGB">
            <feFlood flood-opacity="0" result="BackgroundImageFix"/>
            <feColorMatrix in="SourceAlpha" type="matrix" values="0 0 0 0 0 0 0 0 0 0 0 0 0 0 0 0 0 0 255 0"/>
            <feOffset dy="-5"/>
            <feGaussianBlur stdDeviation="2"/>
            <feColorMatrix type="matrix" values="0 0 0 0 0 0 0 0 0 0 0 0 0 0 0 0 0 0 0.25 0"/>
            <feBlend mode="normal" in2="BackgroundImageFix" result="effect1_dropShadow"/>
            <feBlend mode="normal" in="SourceGraphic" in2="effect1_dropShadow" result="shape"/>
        </filter>
    </defs>
</svg>
