<?xml version="1.0" encoding="utf-8"?>
<!-- Generator: Adobe Illustrator 19.1.0, SVG Export Plug-In . SVG Version: 6.00 Build 0)  -->
<svg version="1.1" id="Calque_1" xmlns="http://www.w3.org/2000/svg" xmlns:xlink="http://www.w3.org/1999/xlink" x="0px" y="0px"
	 viewBox="-457 441 108 144" style="enable-background:new -457 441 108 144;" xml:space="preserve">
<style type="text/css">
	.st0{fill:#61412B;fill-opacity:0.93;}
	.st1{fill:#61412B;}
	.st2{fill:#C9C5C5;}
</style>
<title>Store icon</title>
<g id="Canvas_1_" transform="translate(171 67)">
	<g id="Store_icon">
		<g id="Group_1_">
			<g id="Group">
				<g id="Vector">
					<g transform="translate(-141.343 -67)">
						<path id="path0_fill" class="st0" d="M-591.2,398.9h33.8c6.7-8.8,7-15.3,7.1-15.7c0.7-5.7-4.5-10.1-10-9
							c-4.3,1-8.9,1.5-13.9,1.5s-9.6-0.5-13.9-1.4c-5.6-1.2-10.8,3.3-10.1,8.9C-598.2,383.7-597.1,392.2-591.2,398.9z"/>
					</g>
				</g>
			</g>
			<g id="Vector_2">
				<g transform="translate(-161.747 -36)">
					<path id="path1_fill" class="st0" d="M-555,405h-37c-13.1,5.6-38,53-21,80c17,27,64,12,68,10c3.2-1.6,9-7,11-10c2-3,4.2-8,5-14
						c0.8-6-0.4-21.4-5-34C-539.1,423-549.3,411-555,405z"/>
				</g>
				<g transform="translate(-161.747 -36)">
					<path id="path2_stroke" class="st1" d="M-592,405v-0.5h-0.1l-0.1,0L-592,405z M-555,405l0.4-0.3l-0.1-0.2h-0.2V405z M-534,437
						l-0.5,0.2L-534,437z M-529,471l-0.5-0.1L-529,471z M-534,485l-0.4-0.3l0,0L-534,485z M-545,495l-0.2-0.4L-545,495z M-592,405.5
						h37v-1h-37V405.5z M-555.4,405.3c5.7,6,15.8,17.9,20.9,31.8l0.9-0.3c-5.2-14.1-15.4-26.2-21.1-32.2L-555.4,405.3z
						 M-534.5,437.2c2.3,6.3,3.7,13.2,4.5,19.4c0.8,6.2,0.9,11.5,0.5,14.4l1,0.1c0.4-3,0.3-8.4-0.5-14.6c-0.8-6.2-2.2-13.3-4.6-19.6
						L-534.5,437.2z M-529.5,470.9c-0.8,5.9-3,10.8-4.9,13.8l0.8,0.6c2-3.1,4.3-8.2,5.1-14.2L-529.5,470.9z M-534.4,484.7
						c-1,1.5-2.9,3.5-5,5.4c-2.1,1.9-4.3,3.6-5.8,4.4l0.4,0.9c1.7-0.8,4-2.6,6.1-4.6c2.1-1.9,4.1-4.1,5.1-5.6L-534.4,484.7z
						 M-545.2,494.6c-0.9,0.5-4.6,1.8-9.8,3c-5.2,1.3-12,2.5-19.1,2.8c-14.3,0.6-30.1-2.4-38.4-15.6l-0.8,0.5
						c8.6,13.7,24.9,16.7,39.3,16.1c7.2-0.3,14-1.5,19.3-2.8c5.2-1.3,9-2.6,10-3.1L-545.2,494.6z M-612.6,484.7
						c-8.4-13.3-6.5-31.7-0.8-47.6c2.9-7.9,6.6-15.2,10.5-20.8c3.9-5.6,7.9-9.6,11-10.9l-0.4-0.9c-3.4,1.5-7.5,5.6-11.4,11.3
						c-3.9,5.7-7.8,13-10.6,21c-5.7,16-7.8,34.7,0.9,48.4L-612.6,484.7z"/>
				</g>
			</g>
		</g>
		<g id="Group_2_">
			<g id="Canvas">
				<g id="Coin">
					<g id="Vector_2_">
						<g id="Vector_1_">
							<g transform="translate(-129.758 11.971)">
								<path id="path3_fill" class="st2" d="M-586.8,474.7c2.9,0.3,5.3,0.4,7.1,0.4c1.8,0,3.2-0.1,4.1-0.4c0.9-0.3,1.6-0.8,1.9-1.4
									c0.4-0.7,0.5-1.6,0.5-2.9c0-1.4-0.2-2.4-0.6-3c-0.4-0.6-1-1-2-1.2c-0.9-0.2-2.4-0.3-4.4-0.3c-1.7,0-3.9,0.2-6.4,0.5V453
									h14.7v2.9h-11.8v7.4c1.7-0.2,3.6-0.3,5.5-0.3c2.3,0,4,0.3,5.2,0.8c1.2,0.5,2,1.3,2.4,2.3c0.4,1,0.6,2.3,0.6,4
									c0,2-0.3,3.6-0.8,4.7c-0.5,1.1-1.4,2-2.8,2.5c-1.3,0.5-3.3,0.8-5.8,0.8c-1.1,0-2.4-0.1-3.8-0.2c-1.4-0.1-2.6-0.3-3.6-0.5
									V474.7z"/>
							</g>
						</g>
					</g>
					<g id="Vector_4_">
						<g id="Vector_3_">
							<g transform="translate(-111.821 -8.25728)">
								<path id="path4_fill" class="st2" d="M-553,457.6c-0.7,0.1-1.7,0.3-2.8,0.3c-1.1,0.1-2.1,0.1-3.1,0.1c-3,0-5.1-0.3-6.5-1
									c-1.4-0.6-2.3-1.8-2.8-3.5c-0.5-1.7-0.7-4.4-0.7-8.2c0-3.7,0.2-6.4,0.7-8.1c0.5-1.7,1.4-2.9,2.8-3.6s3.5-1,6.5-1
									c1,0,2,0,3.1,0.1c1.1,0.1,2,0.2,2.7,0.4v2.7c-1.8-0.2-3.4-0.4-5-0.4c-2.5,0-4.3,0.2-5.3,0.6c-1,0.4-1.6,1.2-1.9,2.5
									c-0.3,1.3-0.5,3.5-0.5,6.7c0,3.2,0.2,5.5,0.5,6.7c0.3,1.3,1,2.1,1.9,2.5c1,0.4,2.8,0.6,5.3,0.6c1.8,0,3.5-0.1,5.1-0.4V457.6
									z"/>
							</g>
						</g>
					</g>
					<g id="Vector_6_">
						<g id="Vector_5_">
							<g transform="translate(-132 -15)">
								<path id="path5_fill" class="st2" d="M-589,450.7V426h15.4v2.9h-12.3v8.5h10.9v2.9h-10.9v10.5H-589z"/>
							</g>
						</g>
					</g>
				</g>
			</g>
		</g>
	</g>
</g>
</svg>
