<?xml version="1.0" encoding="utf-8"?>
<!-- Generator: Adobe Illustrator 19.1.0, SVG Export Plug-In . SVG Version: 6.00 Build 0)  -->
<svg version="1.1" id="Calque_1" xmlns="http://www.w3.org/2000/svg" xmlns:xlink="http://www.w3.org/1999/xlink" x="0px" y="0px"
	 viewBox="-4 -42.5 375 93.5" style="enable-background:new -4 -42.5 375 93.5;" xml:space="preserve">
<style type="text/css">
	.st0{fill:#FFFFFF;}
	.st1{fill:none;stroke:#FFFFFF;stroke-width:2;}
	.st2{fill:#595555;}
</style>
<circle class="st0" cx="171.3" cy="1.3" r="9.2"/>
<g id="Canvas">
	<g id="Rectangle">
		<line class="st1" x1="-4" y1="4.4" x2="371" y2="5"/>
	</g>
	<g id="Vector">
		<path class="st1" d="M135,5l-24,33h150L232.5,5H135z"/>
	</g>
	<g id="Vector_2">
		<path class="st1" d="M165,38c10,17,28.5,15,39.5,0"/>
	</g>
	<g id="soccer-ball-in-front-of-the-arch">
		<g id="Group">
			<g id="Group_2">
				<g id="Vector_2_1_">
					<path class="st2" d="M217.9-38h-68.8c0,0,0,0,0,0c0,0,0,0-0.1,0s0,0-0.1,0c0,0,0,0-0.1,0c0,0,0,0-0.1,0c0,0,0,0,0,0
						c0,0,0,0-0.1,0c0,0,0,0,0,0s0,0-0.1,0s0,0,0,0c0,0,0,0,0,0s0,0-0.1,0c0,0,0,0,0,0c0,0,0,0-0.1,0c0,0,0,0,0,0c0,0,0,0,0,0
						c0,0,0,0,0,0c0,0,0,0,0,0c0,0,0,0,0,0c0,0,0,0,0,0c0,0,0,0,0,0c0,0,0,0,0,0.1c0,0,0,0,0,0c0,0,0,0,0,0.1c0,0,0,0,0,0
						c0,0,0,0,0,0.1c0,0,0,0,0,0.1c0,0,0,0,0,0.1c0,0,0,0,0,0.1c0,0,0,0,0,0.1s0,0,0,0.1c0,0,0,0,0,0c0,0,0,0,0,0.1c0,0,0,0,0,0V3.9
						c0,0.4,0.2,0.8,0.6,1c0.4,0.2,0.8,0.1,1.2-0.2l6.4-5.5h2.6c0.1-0.4,0.1-0.7,0.2-1.1c0.1-0.3,0.1-0.6,0.2-0.8
						c0-0.1,0.1-0.2,0.1-0.3h-2.4c0-1,0-1.9,0-2.9l1.2-1.2l2.1,2.1c0.3-0.7,0.8-1.3,1.2-1.9l-1.8-1.8l2.6-2.6l1.8,1.8
						c0.6-0.4,1.3-0.8,1.9-1.2l-2.2-2.3l2.7-2.8l2.7,2.8l-1.6,1.6c0.8-0.3,1.7-0.4,2.6-0.5c0.3,0,0.7-0.1,1-0.1c0,0,0.1,0,0.1,0
						c0.7,0,1.4,0.1,2,0.2l-1.2-1.2l2.7-2.8l2.7,2.8l-1.8,1.8c0.7,0.3,1.4,0.6,2.1,1l1.3-1.3l2.7,2.8l-1,1.1
						c0.5,0.6,0.9,1.2,1.3,1.8l1.3-1.3l2.7,2.8L185.1-3h-1.7c0.1,0.4,0.3,0.9,0.4,1.3c0,0.1,0,0.1,0,0.2c0,0.2,0.1,0.5,0.1,0.7h26.8
						l6.4,5.5c0.2,0.2,0.4,0.3,0.7,0.3c0.2,0,0.3,0,0.5-0.1c0.4-0.2,0.6-0.6,0.6-1v-40.8C219-37.5,218.5-38,217.9-38z M210.1-3h-2.6
						l-1.3-1.3L209-7l1.2,1.2C210.1-4.9,210.1-3.9,210.1-3z M189.3-4.1l2.7-2.8l2.7,2.8L193.6-3h-3.2L189.3-4.1z M163.6-35.8
						l1.3,1.3l-2.7,2.8l-2.7-2.8l1.3-1.3H163.6z M172.1-35.8l1.3,1.3l-2.7,2.8l-2.7-2.8l1.3-1.3H172.1z M180.6-35.8l1.3,1.3
						l-2.7,2.8l-2.7-2.8l1.3-1.3H180.6z M189.2-35.8l1.3,1.3l-2.7,2.8l-2.7-2.8l1.3-1.3H189.2z M197.7-35.8l1.3,1.3l-2.7,2.8
						l-2.7-2.8l1.3-1.3L197.7-35.8z M206.3-35.8l1.3,1.3l-2.7,2.8l-2.7-2.8l1.3-1.3L206.3-35.8z M183.5-27.3l-2.7-2.8l2.7-2.8
						l2.7,2.8L183.5-27.3z M187.8-28.6l2.7,2.8l-2.7,2.8l-2.7-2.8L187.8-28.6z M211.3-20.8l-2.1,2.1l-2.7-2.8l2.7-2.8l2.3,2.3
						C211.4-21.5,211.3-21.2,211.3-20.8z M200.6-18.7l-2.7-2.8l2.7-2.8l2.7,2.8L200.6-18.7z M204.9-19.9l2.7,2.8l-2.7,2.8l-2.7-2.8
						L204.9-19.9z M204.9-23l-2.7-2.8l2.7-2.8l2.7,2.8L204.9-23z M200.6-27.3l-2.7-2.8l2.7-2.8l2.7,2.8L200.6-27.3z M199.1-25.8
						l-2.7,2.8l-2.7-2.8l2.7-2.8L199.1-25.8z M192.1-27.3l-2.7-2.8l2.7-2.8l2.7,2.8L192.1-27.3z M192.1-24.2l2.7,2.8l-2.7,2.8
						l-2.7-2.8L192.1-24.2z M196.3-19.9l2.7,2.8l-2.7,2.8l-2.7-2.8L196.3-19.9z M197.9-12.8l2.7-2.8l2.7,2.8l-2.7,2.8L197.9-12.8z
						 M199.1-8.4l-2.7,2.8l-2.7-2.8l2.7-2.8L199.1-8.4z M204.9-11.2l2.6,2.6l-2.7,2.8l-2.6-2.6L204.9-11.2z M206.4-12.8l2.7-2.8
						l1.4,1.4c-0.1,0.8-0.1,1.7-0.2,2.6l-1.4,1.4L206.4-12.8z M210.7-25.8l1.9-1.9c-0.2,1-0.5,2-0.7,3.1L210.7-25.8z M209.1-27.3
						l-2.7-2.8l2.7-2.8l2.7,2.8L209.1-27.3z M177.7-30.1l-2.7,2.8l-2.7-2.8l2.7-2.8L177.7-30.1z M169.2-30.1l-2.7,2.8l-2.7-2.8
						l2.7-2.8L169.2-30.1z M154.4-27.7l1.9,2l-1.2,1.2C154.9-25.7,154.7-26.7,154.4-27.7z M155.1-30.1l2.7-2.8l2.7,2.8l-2.7,2.8
						L155.1-30.1z M156.3-34.5l-2.7,2.8l-0.6-0.6c-0.6-1.5-1.2-2.7-1.7-3.5h3.7L156.3-34.5z M155.7-20.9c-0.1-0.4-0.1-0.7-0.2-1
						l2.3-2.3l2.7,2.8l-2.7,2.8L155.7-20.9z M159.4-25.8l2.7-2.8l2.7,2.8l-2.7,2.8L159.4-25.8z M166.4-24.2l2.7,2.8l-2.7,2.8
						l-2.7-2.8L166.4-24.2z M168-25.8l2.7-2.8l2.7,2.8l-2.7,2.8L168-25.8z M175-24.2l2.7,2.8l-2.7,2.8l-2.7-2.8L175-24.2z
						 M176.5-25.8l2.7-2.8l2.7,2.8l-2.7,2.8L176.5-25.8z M183.5-24.2l2.7,2.8l-2.7,2.8l-2.7-2.8L183.5-24.2z M187.8-19.9l2.7,2.8
						l-2.7,2.8l-2.7-2.8L187.8-19.9z M192.1-15.6l2.7,2.8l-2.7,2.8l-2.7-2.8L192.1-15.6z M197.9-4.1l2.7-2.8l2.6,2.6L201.9-3H199
						L197.9-4.1z M214-32.2l-0.6,0.6l-2.7-2.8l1.3-1.3h3.6h0.1c-0.2,0.3-0.4,0.7-0.6,1.1C214.7-34,214.4-33.2,214-32.2z M150.2,1.6
						v-34.9c0.4,0.8,0.8,1.8,1.3,3.1c2.7,8,3.3,19.5,3.3,27.9L150.2,1.6z M158-10.2l-1.4-1.4c-0.1-0.9-0.1-1.7-0.2-2.5l1.4-1.4
						l2.7,2.8L158-10.2z M162.1-14.3l-2.7-2.8l2.7-2.8l2.7,2.8L162.1-14.3z M170.7-14.3l-2.7-2.8l2.7-2.8l2.7,2.8L170.7-14.3z
						 M176.5-17.1l2.7-2.8l2.7,2.8l-2.7,2.8L176.5-17.1z M180.8-12.8l2.7-2.8l2.7,2.8l-2.7,2.8L180.8-12.8z M185-8.4l2.7-2.8
						l2.7,2.8l-2.7,2.8L185-8.4z M216.8,1.6l-4.6-3.9c0-8.2,0.6-19.5,3.2-27.5c0.5-1.5,1-2.7,1.4-3.6V1.6L216.8,1.6z"/>
				</g>
				<g id="Vector_3">
					<path class="st2" d="M179.9,1.2c0,1.8-0.5,3.5-1.5,4.9l-2.7,0.4c-0.1,0-0.3,0.1-0.4,0.3l-1.1,2.5c-0.9,0.3-1.9,0.5-2.9,0.5
						c-1,0-2-0.2-2.9-0.5l-1.1-2.5c-0.1-0.1-0.2-0.3-0.4-0.3l-2.7-0.4c-1-1.4-1.5-3.1-1.5-4.9c0,0,0-0.1,0-0.1l1.9-1.8l0,0
						c0.1-0.1,0.2-0.3,0.1-0.4l-0.1-0.5L164.6-3l-0.1-0.7l-0.1-0.3c0.3-0.4,0.6-0.7,0.9-1.1c0.5-0.5,1.1-1,1.7-1.3
						c0.6-0.3,1.2-0.6,1.8-0.8l1.1,0.6l1,0.6l0.2,0.1c0.1,0.1,0.3,0.1,0.4,0l2.3-1.3c0.3,0.1,0.6,0.2,0.9,0.3
						c0.2,0.1,0.4,0.2,0.6,0.3c0.7,0.4,1.4,0.9,2,1.5c0.2,0.2,0.4,0.4,0.5,0.6c0.1,0.1,0.2,0.3,0.3,0.5l-0.1,0.3L178.1-3l-0.3,1.4
						l-0.1,0.3c0,0.1,0,0.3,0.1,0.4l0,0L179.9,1.2C179.9,1.1,179.9,1.1,179.9,1.2z M181.7-1.4c-0.1-0.5-0.3-1-0.5-1.5
						c-0.2-0.4-0.3-0.8-0.5-1.1c0-0.1-0.1-0.1-0.1-0.2c-0.3-0.6-0.7-1.1-1.1-1.6c-0.8-0.9-1.7-1.7-2.8-2.3c-0.1-0.1-0.2-0.1-0.3-0.2
						c-0.7-0.4-1.4-0.7-2.2-0.9c-0.6-0.2-1.3-0.3-2-0.4c-0.3,0-0.6,0-0.9,0c-0.9,0-1.7,0.1-2.5,0.3c-0.5,0.1-1,0.3-1.4,0.4
						c-0.7,0.3-1.4,0.6-2,1.1c-1,0.7-1.9,1.5-2.6,2.5c-0.4,0.6-0.8,1.3-1.1,2c-0.1,0.1-0.1,0.3-0.2,0.4c-0.2,0.4-0.3,0.8-0.4,1.1
						c-0.1,0.3-0.2,0.7-0.2,1.1c-0.1,0.6-0.2,1.3-0.2,1.9c0,6,4.8,10.8,10.7,10.8c5.9,0,10.7-4.9,10.7-10.8c0-0.6-0.1-1.3-0.2-1.9
						C181.8-1,181.8-1.2,181.7-1.4z"/>
				</g>
				<g id="Vector_4">
					<path class="st2" d="M175.3-0.3l-0.6-0.4l-1.1-0.8L171.7-3L171.6-3c-0.1-0.1-0.3-0.1-0.4,0c0,0,0,0,0,0L171.1-3l-0.4,0.3
						l-1.3,1l-1.2,0.9l-0.6,0.4c-0.1,0.1-0.2,0.3-0.1,0.4l1.4,4.4c0,0.1,0.2,0.3,0.3,0.3h4.6c0.1,0,0.3-0.1,0.3-0.3l1.4-4.4
						C175.4,0,175.4-0.2,175.3-0.3z"/>
				</g>
			</g>
		</g>
	</g>
	<g id="football-player-setting-ball">
		<g id="Group_3">
			<g id="Group_4">
				<g id="Vector_5">
					<path class="st2" d="M266.1-23.7c2.4,0.7,3.8,3.2,3.1,5.6c-0.7,2.4-3.2,3.9-5.6,3.2c-2.4-0.7-3.8-3.2-3.1-5.6
						C261.2-22.9,263.7-24.4,266.1-23.7z"/>
				</g>
				<g id="Vector_6">
					<path class="st2" d="M274.1,5.1c0.2,0.2,0.5,0.3,0.7,0.3c0.9,0.2,1.9-0.1,2.4-0.9C279.7,1.1,279-5,279-5.7l-0.1-0.8l-6.6-6.2
						c-0.4-0.4-0.9-0.6-1.4-0.6c-3.4-1.3-8.7,0.1-10.1,0.5c-0.2,0.1-0.3,0.1-0.3,0.1l0,0c-0.2,0.1-0.5,0.2-0.7,0.4l-5.8,4.8
						l-6.4,1.2c-1.2,0.2-2,1.4-1.8,2.7c0.2,0.9,0.8,1.6,1.6,1.8c0.3,0.1,0.7,0.1,1,0l7.5-1.5l3-2.5l-1.6,7.2c0,0,0,0,0.1,0
						c0,0.1,0,0.3,0,0.4l-0.1,2.9l-5.5,3.7l-14,10c-1,0.7-1.3,2.2-0.6,3.2c0.3,0.5,0.8,0.8,1.2,0.9c0.6,0.2,1.3,0.1,1.9-0.3
						l13.9-9.9l2.9-1.9l0,0.9l1.1,0.7c3.1,1.9,6.8,4.4,7.8,5.3c0.2,0.7,0.8,1.2,1.5,1.4c0,0,0.1,0,0.2,0c1.2,0.2,2.4-0.6,2.7-1.8
						c0.4-1.9-1-3.2-5.2-6.1c-1.3-0.9-2.5-1.7-3.4-2.2l0-1.4l1.9-1.3c1.7-0.5,6.3-7.4,8.3-12.8l2.6,2.5c0.1,1.9,0,4.9-0.9,6.2
						C272.9,3,273.1,4.4,274.1,5.1z"/>
				</g>
				<g id="Vector_7">
					<path class="st2" d="M233.5,9.8c2.5,0.7,4,3.4,3.3,5.9c-0.7,2.6-3.3,4.1-5.9,3.4c-2.5-0.7-4-3.4-3.3-5.9
						C228.3,10.7,231,9.1,233.5,9.8z"/>
				</g>
			</g>
		</g>
	</g>
	<g id="football-player-attempting-to-kick-ball">
		<g id="Group_5">
			<g id="Group_6">
				<g id="Vector_8">
					<path class="st2" d="M112.6-22.8c2-0.6,4.1,0.6,4.7,2.6c0.6,2-0.6,4.1-2.6,4.7c-2,0.6-4.1-0.6-4.7-2.6
						C109.4-20.2,110.6-22.2,112.6-22.8z"/>
				</g>
				<g id="Vector_9">
					<path class="st2" d="M102.3,11.8c-1.4-0.4-2.8,0.4-3.2,1.8c-0.4,1.4,0.4,2.8,1.7,3.2l8.5,2.5c1.3,0.4,2.7-0.3,3.2-1.5L118,3.9
						l9.4,6.8l4.5,11.8c0.5,1.3,1.9,1.9,3.2,1.6c0.1,0,0.1,0,0.2-0.1c1.3-0.5,2-2,1.5-3.3L132,8.1c-0.2-0.5-0.5-0.9-0.9-1.2l-8-6.8
						l-2.8-11.5c0,0-0.1-0.7-0.3-1.5c0.5-1,1.1-2.4,1.9-4.4c1.2-3,2.2-5.8,2.2-5.9c0.3-0.9-0.2-1.9-1.1-2.2
						c-0.9-0.3-1.9,0.2-2.3,1.1c-1.1,3.1-2.5,6.6-3.5,9c-2.1,0.3-4.9,1.2-6.5,2c-0.6,0.3-0.9,0.6-1,1c0,0.1-0.1,0.2-0.1,0.2
						c-1.8,5-4.1,10.8-4.9,11.8c-0.7,0.7-0.7,1.7-0.1,2.4c0.5,0.5,1.2,0.7,1.8,0.5c0.3-0.1,0.5-0.2,0.7-0.4c0.4-0.4,1.1-1,3.6-7.3
						c0.1-0.2,0.2-0.5,0.3-0.7l1.6,6.3l0,0l-4.2,13L102.3,11.8z"/>
				</g>
				<g id="Vector_10">
					<path class="st2" d="M122.6,20c2.2-0.6,4.4,0.6,5.1,2.8c0.6,2.1-0.6,4.4-2.8,5c-2.2,0.6-4.4-0.6-5.1-2.8
						C119.1,22.9,120.4,20.6,122.6,20z"/>
				</g>
			</g>
		</g>
	</g>
</g>
</svg>
