<?xml version="1.0" encoding="utf-8"?>
<!-- Generator: Adobe Illustrator 19.1.0, SVG Export Plug-In . SVG Version: 6.00 Build 0)  -->
<svg version="1.1" id="Calque_1" xmlns="http://www.w3.org/2000/svg" xmlns:xlink="http://www.w3.org/1999/xlink" x="0px" y="0px"
	 viewBox="-64 228 255 58" style="enable-background:new -64 228 255 58;" xml:space="preserve">
<style type="text/css">
	.st0{fill:#2D9CDB;}
	.st1{fill:#FFFFFF;}
</style>
<g id="Canvas">
	<g id="Find_game_ribbon">
		<g id="ribbon-banner-shape">
			<g id="Group">
				<g id="Vector">
					<path class="st0" d="M186.5,251.4c0.7-0.8,0.6-1.8-0.1-2.5c-0.8-0.8-2.1-1.2-3.6-1.2h-26.5v-14.1c0-1.4-1.9-2.6-4.2-2.6H-25
						c-2.3,0-4.2,1.2-4.2,2.6v14.1h-26.5c-1.5,0-2.8,0.5-3.6,1.2c-0.8,0.8-0.8,1.7-0.1,2.5l11,12.9l-11,12.9
						c-0.7,0.8-0.6,1.8,0.1,2.5c0.8,0.8,2.1,1.2,3.6,1.2h51.4c2.3,0,4.2-1.2,4.2-2.6v-14.1h127.4v14.1c0,1.4,1.9,2.6,4.2,2.6h51.4
						c1.5,0,2.8-0.5,3.6-1.2c0.8-0.8,0.8-1.7,0.1-2.5l-10.9-12.9L186.5,251.4z M-5,278.2l-24.2-13.9H-5V278.2z M132,278.2v-13.9
						h24.2L132,278.2z"/>
				</g>
			</g>
		</g>
		<g id="FIND_GAME">
			<path class="st1" d="M24.6,248.6h-5.2v5.4h-2.2v-12.8h8.1v1.8h-5.9v3.8h5.2V248.6z M29.5,254h-2.2v-12.8h2.2V254z M42.3,254h-2.2
				l-5.7-9.1v9.1h-2.2v-12.8h2.2l5.7,9.1v-9.1h2.2V254z M45,254v-12.8h3.8c1.1,0,2.1,0.3,3,0.8c0.9,0.5,1.6,1.2,2,2.1
				c0.5,0.9,0.7,2,0.7,3.2v0.6c0,1.2-0.2,2.3-0.7,3.2c-0.5,0.9-1.2,1.6-2.1,2.1c-0.9,0.5-1.9,0.7-3.1,0.7H45z M47.2,243v9.2h1.5
				c1.2,0,2.1-0.4,2.7-1.1c0.6-0.7,0.9-1.8,1-3.1v-0.7c0-1.4-0.3-2.4-0.9-3.2c-0.6-0.7-1.5-1.1-2.6-1.1H47.2z M71,252.3
				c-0.5,0.6-1.1,1.1-1.9,1.4c-0.8,0.3-1.8,0.5-2.8,0.5c-1.1,0-2-0.2-2.8-0.7c-0.8-0.5-1.5-1.2-1.9-2.1c-0.4-0.9-0.7-2-0.7-3.2v-1
				c0-1.9,0.5-3.4,1.4-4.5c0.9-1.1,2.2-1.6,3.9-1.6c1.4,0,2.6,0.4,3.4,1.1c0.8,0.7,1.3,1.7,1.5,3h-2.2c-0.2-1.5-1.1-2.3-2.7-2.3
				c-1,0-1.8,0.4-2.3,1.1c-0.5,0.7-0.8,1.8-0.8,3.2v1c0,1.4,0.3,2.5,0.9,3.2c0.6,0.8,1.4,1.1,2.4,1.1c1.1,0,1.9-0.3,2.4-0.8v-2.5
				h-2.6v-1.7H71V252.3z M80.6,251h-5l-1,3h-2.3l4.8-12.8h2L84,254h-2.3L80.6,251z M76.3,249.2H80l-1.9-5.3L76.3,249.2z M88.3,241.2
				L92,251l3.7-9.8h2.9V254h-2.2v-4.2l0.2-5.6l-3.8,9.9h-1.6l-3.8-9.9l0.2,5.6v4.2h-2.2v-12.8H88.3z M108.7,248.3h-5.3v3.9h6.1v1.8
				h-8.4v-12.8h8.3v1.8h-6.1v3.5h5.3V248.3z"/>
		</g>
	</g>
</g>
</svg>
