<svg width="62" height="47" viewBox="0 0 62 47" version="1.1" xmlns="http://www.w3.org/2000/svg" xmlns:xlink="http://www.w3.org/1999/xlink">
    <title>XMLID 477</title>
    <desc>Created using Figma</desc>
    <g id="Canvas" transform="translate(32 -278)">
        <g id="XMLID 477">
            <g id="XMLID 478">
                <use xlink:href="#path0_fill" transform="translate(-7.63314 280.923)" fill="#FFFFFF"/>
            </g>
            <g id="XMLID 479">
                <use xlink:href="#path1_fill" transform="translate(-6.76826 316.296)" fill="#FFFFFF"/>
            </g>
            <g id="XMLID 480">
                <use xlink:href="#path2_fill" transform="translate(-32 287.141)" fill="#FFFFFF"/>
            </g>
            <g id="XMLID 481">
                <use xlink:href="#path3_fill" transform="translate(-0.910316 288.665)" fill="#FFFFFF"/>
            </g>
            <g id="XMLID 482">
                <use xlink:href="#path4_fill" transform="translate(8.36159 278)" fill="#FFFFFF"/>
            </g>
        </g>
    </g>
    <defs>
        <path id="path0_fill" d="M 7.36816 7.47159C 9.08731 5.79235 9.11941 3.03359 7.44702 1.31633C 5.77236 -0.405619 3.0273 -0.443893 1.31245 1.23535C -0.404685 2.91408 -0.44298 5.66701 1.23358 7.38643C 2.90205 9.11002 5.6533 9.14437 7.36816 7.47159Z"/>
        <path id="path1_fill" d="M 1.31005 1.23684C -0.404806 2.9119 -0.441333 5.66661 1.23131 7.3864C 2.89953 9.10987 5.65103 9.14637 7.3698 7.47106C 9.08491 5.79208 9.11916 3.03331 7.44462 1.3158C 5.77009 -0.407796 3.02718 -0.442143 1.31005 1.23684Z"/>
        <path id="path2_fill" d="M 33.6924 14.5817L 27.4164 12.7789L 26.469 9.70016C 27.7296 8.24384 27.7074 6.04613 26.3397 4.63849L 25.2265 3.4942C 24.7276 2.97788 23.8753 2.54432 23.4674 2.4409L 14.2705 0.0751429C 13.4321 -0.143602 12.5395 0.123809 11.9535 0.765595L 6.41891 6.81402C 5.54214 7.77404 5.6047 9.26685 6.56021 10.1458C 7.01066 10.5609 7.5803 10.7675 8.14981 10.7675C 8.78606 10.7675 9.41839 10.5083 9.88312 10.0039L 14.4642 4.99297L 17.5305 5.78113L 10.982 12.1795C 9.97627 13.0424 9.06728 14.4114 9.64475 15.7889L 12.2325 21.9627L 1.52484 27.5304C 0.141004 28.2495 -0.400197 29.9589 0.316812 31.3445C 1.0318 32.7218 2.72643 33.2727 4.12026 32.5536L 17.1411 25.7845C 17.5145 25.5902 17.8057 25.3124 18.0499 24.9986L 19.4721 26.5766L 17.3914 34.2936C 16.9855 35.7987 17.876 37.3541 19.3792 37.7612C 20.8984 38.1684 22.4353 37.2629 22.8373 35.768L 25.3197 26.5621C 25.5683 25.6347 25.334 24.644 24.6895 23.9311L 18.7267 17.3077L 22.6959 13.429L 23.2999 15.3873C 23.5342 16.1492 24.1341 16.7407 24.8977 16.9593L 32.3977 19.1123C 33.6501 19.4729 34.9489 18.7417 35.3045 17.4961C 35.6619 16.2444 34.9408 14.9401 33.6924 14.5817Z"/>
        <path id="path3_fill" d="M 30.7731 10.7098L 28.024 2.97673C 27.7328 2.1584 27.0159 1.5668 26.1594 1.43728L 16.7685 0.021525C 16.3402 -0.0413355 15.3989 0.0277339 14.7406 0.305157L 13.2681 0.925018C 11.4643 1.68834 10.5836 3.70393 11.1837 5.53893L 9.11698 8.00202L 2.63483 7.21411C 1.31583 7.05823 0.172638 7.97782 0.0171789 9.26988C -0.13828 10.5641 0.778677 11.7372 2.06747 11.893L 9.8139 12.8349C 10.5855 12.932 11.3735 12.6322 11.8986 12.0124L 13.2094 10.4466L 15.5708 16.0714L 11.6725 18.8646C 11.2964 19.1361 10.9916 19.4945 10.7856 19.9079L 4.67312 32.249C 3.98025 33.6465 4.54977 35.346 5.94561 36.0406C 7.33539 36.7294 9.03015 36.1723 9.72921 34.7648L 14.488 25.1515L 22.8952 35.3134C 23.8851 36.5065 25.6606 36.6828 26.8684 35.6845C 28.0682 34.6857 28.2339 32.9032 27.2382 31.7002L 19.536 22.391L 24.3175 17.7123C 25.3596 16.6934 25.0931 15.2168 24.5273 13.9588L 20.942 5.4198L 24.0689 5.88948L 26.3454 12.292C 26.7837 13.5277 28.139 14.1594 29.3492 13.7201C 30.571 13.2845 31.2093 11.9355 30.7731 10.7098Z"/>
        <path id="path4_fill" d="M 6.02616 8.36105C 8.23621 7.43158 9.27033 4.88142 8.34111 2.66368C 7.4119 0.451776 4.86856 -0.591633 2.66116 0.342403C 0.451235 1.27391 -0.58908 3.82609 0.340137 6.04396C 1.2734 8.25561 3.81826 9.29889 6.02616 8.36105Z"/>
    </defs>
</svg>
