<svg width="320" height="511" viewBox="0 0 320 511" fill="none" xmlns="http://www.w3.org/2000/svg">
    <g filter="url(#filter0_dd)">
        <rect width="286" height="475" rx="115" transform="translate(17 17)" fill="#219653"/>
        <rect width="286" height="475" rx="115" transform="translate(17 17)" stroke="#454545" stroke-opacity="0.8" stroke-width="30"/>
    </g>
    <g filter="url(#filter1_dd)">
        <rect width="256" height="425" rx="115" transform="translate(32 42)" fill="#DEDEDE"/>
        <rect width="256" height="425" rx="115" transform="translate(32 42)" stroke="#706E6E" stroke-width="2"/>
    </g>
    <path d="M57.59 14.7032L59.2373 9.7567e-07C57.59 0.765967 55.4146 1.457 52.7596 2.04812C46.5599 3.43852 38.3378 4.20449 29.6013 4.20449C20.8647 4.20449 12.6356 3.43852 6.44291 2.04812C3.80181 1.457 1.64027 0.774291 2.65132e-08 0.0167347L1.68197 14.695C1.75147 15.1446 2.02253 15.7773 2.31444 16.077C4.53158 18.3084 9.31338 20.9892 18.6893 22.1799V10.0243C18.6893 8.87529 19.4677 7.9429 20.4269 7.9429H38.7617C39.7209 7.9429 40.4993 8.87529 40.4993 10.0243V22.2048C49.9169 21.0476 54.664 18.4082 56.9506 16.077C57.2495 15.7856 57.5205 15.1528 57.59 14.7032Z" transform="translate(197.849 148.344)" fill="#595555"/>
    <path d="M61.9896 4.67509e-07C61.788 0.124886 61.5726 0.249772 61.3432 0.366332C59.6334 1.27384 57.2147 2.08152 54.1497 2.77247C47.95 4.16286 39.7278 4.92875 30.9913 4.92875C22.2548 4.92875 14.0257 4.16286 7.83297 2.77247C4.76789 2.08143 2.3492 1.27384 0.639426 0.366332C0.417017 0.249855 0.201558 0.124886 -6.62831e-09 4.67509e-07L1.05644 9.19993C1.1885 9.27478 1.3275 9.35804 1.48736 9.44129C3.03032 10.2572 5.35172 11.0316 8.21523 11.6726C14.2898 13.038 22.3799 13.7873 30.9913 13.7873C39.6027 13.7873 47.6928 13.038 53.7674 11.6726C56.6309 11.0316 58.9592 10.2572 60.4953 9.44129C60.6621 9.34971 60.815 9.26645 60.954 9.1832L61.9896 4.67509e-07Z" transform="translate(196.459 136.263)" fill="#595555"/>
    <path d="M1.94608 20.3481C3.48904 21.164 5.81044 21.9383 8.67395 22.5794C8.74345 22.5294 8.81991 22.4877 8.91026 22.4629C13.977 21.0475 22.373 20.2066 31.3666 20.2066C40.4785 20.2066 48.9369 21.0641 53.9898 22.5128C54.0523 22.5294 54.1149 22.5628 54.1706 22.5961C54.1914 22.5961 54.2053 22.5877 54.2262 22.5877C57.0897 21.9466 59.418 21.1723 60.954 20.3564C62.2051 19.6903 62.6847 19.1325 62.8306 18.8411C62.8723 18.7578 62.8862 18.6995 62.8862 18.6579C62.8862 18.4748 62.5387 17.8004 60.954 16.9595C60.2729 16.6015 59.4389 16.2435 58.4728 15.9104V14.6116V13.3128V11.6976L63.755 7.9344C64.0817 7.70128 64.0817 7.3183 63.755 7.08518L57.8612 2.93898C57.7291 2.87237 57.5832 2.83074 57.4302 2.83074C56.8534 2.83074 56.3877 3.38856 56.3877 4.0796V12.6967V13.9789V15.261C55.7066 15.0695 54.9837 14.8947 54.2262 14.7199C48.4157 13.4127 40.7704 12.6717 32.576 12.6051V11.3563V10.1074V8.85856L37.8583 5.09534C38.1849 4.86222 38.1849 4.47923 37.8583 4.24611L31.9575 0.108234C31.8255 0.0416286 31.6795 -2.48999e-07 31.5265 -2.48999e-07C30.9497 -2.48999e-07 30.484 0.557822 30.484 1.24886V10.1074V11.3563V12.6051C22.2341 12.6551 14.5123 13.4044 8.66714 14.7199C7.96516 14.878 7.30488 15.0446 6.67241 15.2111V13.9289V12.6468V11.681L11.9546 7.91775C12.2813 7.68463 12.2813 7.30165 11.9546 7.06853L6.05383 2.93065C5.92178 2.86404 5.77582 2.82242 5.62292 2.82242C5.04604 2.82242 4.58037 3.38024 4.58037 4.07127V13.2462V14.5367V15.8355C3.54478 16.1852 2.6482 16.5598 1.93232 16.9428C0.347514 17.7839 0 18.4583 0 18.6414C0 18.683 0.0139006 18.7413 0.0556023 18.8245C0.215459 19.1326 0.695028 19.6821 1.94608 20.3481Z" transform="translate(196 114)" fill="#595555"/>
    <path d="M36.3222 1.34043C31.45 0.482886 24.9862 9.75662e-07 18.1263 9.75662e-07C11.3151 9.75662e-07 4.87215 0.482889 4.24212e-07 1.3321C5.31002 2.15634 11.607 2.5976 18.2028 2.5976C24.7708 2.58928 31.0261 2.15642 36.3222 1.34043Z" transform="translate(209.247 136.105)" fill="#595555"/>
    <path d="M4.07975 9.75671e-07V11.9724V14.3702L3.0372 14.7865L1.99466 15.2028L0.660277 15.7274C0.298862 15.8688 6.78738e-08 16.3601 6.78738e-08 16.8181V18.375C6.78738e-08 18.8329 0.312763 19.2075 0.695028 19.2075H25.0974C25.4797 19.2075 25.7924 18.8329 25.7924 18.375V16.8181C25.7924 16.3601 25.4936 15.8689 25.1322 15.7274L23.7977 15.2028L22.7552 14.7865L21.7126 14.3702V11.9891V9.75671e-07H19.1688V10.7319H6.62355V9.75671e-07H4.07975Z" transform="translate(214.55 158.792)" fill="#595555"/>
    <defs>
        <filter id="filter0_dd" x="0" y="0" width="320" height="511" filterUnits="userSpaceOnUse" color-interpolation-filters="sRGB">
            <feFlood flood-opacity="0" result="BackgroundImageFix"/>
            <feColorMatrix in="SourceAlpha" type="matrix" values="0 0 0 0 0 0 0 0 0 0 0 0 0 0 0 0 0 0 255 0"/>
            <feOffset dy="2"/>
            <feGaussianBlur stdDeviation="1"/>
            <feColorMatrix type="matrix" values="0 0 0 0 0 0 0 0 0 0 0 0 0 0 0 0 0 0 0.25 0"/>
            <feBlend mode="normal" in2="BackgroundImageFix" result="effect1_dropShadow"/>
            <feColorMatrix in="SourceAlpha" type="matrix" values="0 0 0 0 0 0 0 0 0 0 0 0 0 0 0 0 0 0 255 0"/>
            <feOffset/>
            <feGaussianBlur stdDeviation="1"/>
            <feColorMatrix type="matrix" values="0 0 0 0 0 0 0 0 0 0 0 0 0 0 0 0 0 0 0.12 0"/>
            <feBlend mode="normal" in2="effect1_dropShadow" result="effect2_dropShadow"/>
            <feBlend mode="normal" in="SourceGraphic" in2="effect2_dropShadow" result="shape"/>
        </filter>
        <filter id="filter1_dd" x="29" y="39" width="262" height="433" filterUnits="userSpaceOnUse" color-interpolation-filters="sRGB">
            <feFlood flood-opacity="0" result="BackgroundImageFix"/>
            <feColorMatrix in="SourceAlpha" type="matrix" values="0 0 0 0 0 0 0 0 0 0 0 0 0 0 0 0 0 0 255 0"/>
            <feOffset dy="2"/>
            <feGaussianBlur stdDeviation="1"/>
            <feColorMatrix type="matrix" values="0 0 0 0 0 0 0 0 0 0 0 0 0 0 0 0 0 0 0.25 0"/>
            <feBlend mode="normal" in2="BackgroundImageFix" result="effect1_dropShadow"/>
            <feColorMatrix in="SourceAlpha" type="matrix" values="0 0 0 0 0 0 0 0 0 0 0 0 0 0 0 0 0 0 255 0"/>
            <feOffset/>
            <feGaussianBlur stdDeviation="1"/>
            <feColorMatrix type="matrix" values="0 0 0 0 0 0 0 0 0 0 0 0 0 0 0 0 0 0 0.12 0"/>
            <feBlend mode="normal" in2="effect1_dropShadow" result="effect2_dropShadow"/>
            <feBlend mode="normal" in="SourceGraphic" in2="effect2_dropShadow" result="shape"/>
        </filter>
    </defs>
</svg>
