<svg width="84" height="35" viewBox="0 0 84 35" version="1.1" xmlns="http://www.w3.org/2000/svg" xmlns:xlink="http://www.w3.org/1999/xlink">
    <title>Logo</title>
    <desc>Created using Figma</desc>
    <g id="Canvas" transform="translate(29 338)">
        <g id="Logo" filter="url(#filter0_dd)">
            <g id="football (1)">
                <g id="Group">
                    <g id="Vector">
                        <use xlink:href="#path0_fill" transform="translate(42.46 -337.155)" fill="#595555"/>
                    </g>
                    <g id="Vector">
                        <use xlink:href="#path1_fill" transform="translate(44.3632 -335.469)" fill="#595555"/>
                    </g>
                    <g id="Vector">
                        <use xlink:href="#path2_fill" transform="translate(47.1985 -337.217)" fill="#595555"/>
                    </g>
                    <g id="Vector">
                        <use xlink:href="#path3_fill" transform="translate(46.2665 -337.087)" fill="#595555"/>
                    </g>
                    <g id="Vector">
                        <use xlink:href="#path4_fill" transform="translate(30.5505 -333.943)" fill="#595555"/>
                    </g>
                </g>
            </g>
            <g id="football (1)">
                <g id="Group">
                    <g id="Vector">
                        <use xlink:href="#path0_fill" transform="matrix(-1 0 0 -1 -16.2977 -307.597)" fill="#595555"/>
                    </g>
                    <g id="Vector">
                        <use xlink:href="#path1_fill" transform="matrix(-1 0 0 -1 -18.2009 -309.283)" fill="#595555"/>
                    </g>
                    <g id="Vector">
                        <use xlink:href="#path2_fill" transform="matrix(-1 0 0 -1 -21.0362 -307.535)" fill="#595555"/>
                    </g>
                    <g id="Vector">
                        <use xlink:href="#path3_fill" transform="matrix(-1 0 0 -1 -20.1042 -307.664)" fill="#595555"/>
                    </g>
                    <g id="Vector">
                        <use xlink:href="#path4_fill" transform="matrix(-1 0 0 -1 -4.38819 -310.808)" fill="#595555"/>
                    </g>
                </g>
            </g>
            <g id="FC5">
                <use xlink:href="#path5_fill" transform="translate(-13.6288 -355.991)" fill="#FFFFFF"/>
            </g>
        </g>
    </g>
    <defs>
        <filter id="filter0_dd" filterUnits="userSpaceOnUse" x="-29" y="-340" width="84" height="37" color-interpolation-filters="sRGB">
            <feFlood flood-opacity="0" result="BackgroundImageFix"/>
            <feColorMatrix in="SourceAlpha" type="matrix" values="0 0 0 0 0 0 0 0 0 0 0 0 0 0 0 0 0 0 255 0"/>
            <feOffset dx="0" dy="2"/>
            <feGaussianBlur stdDeviation="1"/>
            <feColorMatrix type="matrix" values="0 0 0 0 0 0 0 0 0 0 0 0 0 0 0 0 0 0 0.24 0"/>
            <feBlend mode="normal" in2="BackgroundImageFix" result="effect1_dropShadow"/>
            <feColorMatrix in="SourceAlpha" type="matrix" values="0 0 0 0 0 0 0 0 0 0 0 0 0 0 0 0 0 0 255 0"/>
            <feOffset dx="0" dy="0"/>
            <feGaussianBlur stdDeviation="1"/>
            <feColorMatrix type="matrix" values="0 0 0 0 0 0 0 0 0 0 0 0 0 0 0 0 0 0 0.12 0"/>
            <feBlend mode="normal" in2="effect1_dropShadow" result="effect2_dropShadow"/>
            <feBlend mode="normal" in="SourceGraphic" in2="effect2_dropShadow" result="shape"/>
        </filter>
        <path id="path0_fill" d="M 0.374558 2.4453C 0.470477 2.4453 0.566395 2.40883 0.639583 2.33565L 2.33565 0.639583C 2.48202 0.493457 2.48202 0.255908 2.33565 0.109782C 2.18927 -0.036594 1.95222 -0.036594 1.80584 0.109782L 0.109782 1.80584C -0.0365941 1.95197 -0.0365941 2.18952 0.109782 2.33565C 0.18272 2.40883 0.278639 2.4453 0.374558 2.4453Z"/>
        <path id="path1_fill" d="M 0.109751 2.55296C 0.182938 2.62615 0.278857 2.66262 0.374776 2.66262C 0.470695 2.66262 0.566614 2.62615 0.639802 2.55296L 2.55318 0.639583C 2.69956 0.493457 2.69956 0.256158 2.55318 0.109782C 2.4068 -0.036594 2.16975 -0.036594 2.02338 0.109782L 0.11 2.02316C -0.0366256 2.16929 -0.0366255 2.40659 0.109751 2.55296Z"/>
        <path id="path2_fill" d="M 0.374558 1.57604C 0.470477 1.57604 0.566395 1.53957 0.639583 1.46638L 1.46638 0.639583C 1.61276 0.493457 1.61276 0.255908 1.46638 0.109782C 1.32001 -0.036594 1.08296 -0.036594 0.936582 0.109782L 0.109781 0.936581C -0.0365948 1.08271 -0.0365948 1.32026 0.109781 1.46638C 0.182969 1.53932 0.278889 1.57604 0.374558 1.57604Z"/>
        <path id="path3_fill" d="M 6.07498 0.109782C 5.9286 -0.0365941 5.69155 -0.0365941 5.54518 0.109782L 0.109782 5.54518C -0.0365936 5.6913 -0.0365936 5.92885 0.109782 6.07498C 0.18297 6.14817 0.278888 6.18463 0.374807 6.18463C 0.470726 6.18463 0.566646 6.14817 0.639834 6.07498L 6.07523 0.639583C 6.22135 0.493207 6.22135 0.255908 6.07498 0.109782Z"/>
        <path id="path4_fill" d="M 15.595 7.04838C 15.5118 6.14265 15.2753 5.27064 14.8919 4.45683C 14.8916 4.45633 14.8916 4.45608 14.8914 4.45558C 14.5122 3.64627 13.9959 2.91139 13.3584 2.27418C 13.229 2.14179 13.1039 2.02564 12.985 1.92623C 12.621 1.6035 12.2221 1.31225 11.7987 1.06046C 11.7982 1.06021 11.798 1.05996 11.7977 1.05971C 11.5587 0.918579 11.3276 0.797432 11.0918 0.689773C 10.4072 0.37479 9.68002 0.16272 8.9299 0.0593073C 8.75755 0.0358272 8.58519 0.0175928 8.40959 0.00435406C 8.26322 -0.00613705 8.1081 0.0260855 7.97821 0.0245868C 7.48313 0.0140957 6.9848 -0.0765772 6.49846 0.173211C 6.49721 0.173211 6.49622 0.173211 6.49497 0.173211C 5.5058 0.173211 4.57384 0.604346 3.72731 1.13365C 3.31816 1.38543 2.92599 1.67194 2.56205 1.92173L 2.5618 1.92173C 2.56155 1.92173 2.5613 1.98018 2.56105 1.98043C 2.5603 1.98118 2.5593 2.0109 2.5583 2.0119C 2.55805 2.01215 2.55805 2.02689 2.5578 2.02689C 2.47912 2.09758 2.40069 2.17801 2.325 2.25395C 2.28978 2.28917 2.25256 2.33088 2.21934 2.37135C 1.63184 2.97933 1.11453 3.67025 0.759327 4.42036C 0.410123 5.1475 0.279483 5.92309 0.0296949 6.72191C 0.0296949 6.72191 0.0296949 6.72216 0.0296949 6.72241C 0.0296949 7.16079 -0.0125193 7.61216 0.00371693 8.07302L 0.0384375 8.33929C 0.0918922 9.11588 0.267993 9.86625 0.541511 10.5707C 0.541761 10.5711 0.546507 10.5716 0.546757 10.5724C 0.547256 10.5739 0.550504 10.5754 0.551003 10.5769C 0.551503 10.5781 0.553001 10.5796 0.553501 10.5809C 0.553751 10.5811 0.5545 10.5816 0.55475 10.5819C 0.616448 10.7507 0.690135 10.9244 0.779809 11.1122C 1.0903 11.7676 1.49146 12.3761 1.97954 12.9299C 1.99628 12.9496 2.01326 12.9686 2.0315 12.9869C 2.11668 13.0883 2.2121 13.1919 2.31476 13.2946C 2.8026 13.7824 3.35238 14.2036 3.95687 14.5505C 3.98459 14.5665 4.01232 14.5818 4.04005 14.5962C 4.04105 14.5967 4.04205 14.5977 4.04304 14.5982C 5.01922 15.144 6.13152 15.4745 7.25732 15.5539C 7.44042 15.5679 7.62626 15.5749 7.81235 15.5749C 7.90552 15.5749 7.99894 15.5729 8.09186 15.5697C 8.09286 15.5697 8.09386 15.5694 8.09486 15.5692C 8.96637 15.5422 9.8174 15.3721 10.6245 15.0631C 10.7484 15.0159 10.8718 14.9654 10.9957 14.9105C 11.0076 14.905 11.0194 14.899 11.0306 14.8925C 11.7865 14.5553 12.4816 14.0977 13.0971 13.5319C 13.1071 13.5236 13.1171 13.5137 13.1268 13.5044C 13.1953 13.4472 13.263 13.3823 13.3207 13.3221L 13.2994 13.3001C 14.2639 12.3382 15.0165 11.1404 15.2663 9.83627C 15.2663 9.83602 15.2663 9.83602 15.2663 9.83577C 15.2663 9.83552 15.2663 9.91471 15.2663 9.91471L 15.3097 9.91471L 15.3315 9.91471C 15.4039 9.66492 15.4721 9.34369 15.5128 9.08691C 15.5136 9.08241 15.5196 9.05818 15.5201 9.05369C 15.6192 8.46044 15.6495 7.83872 15.6052 7.23473C 15.603 7.17703 15.6002 7.10659 15.595 7.04838ZM 12.8261 2.80123C 13.3569 3.33203 13.7885 3.93777 14.1213 4.59796L 12.6565 6.95297L 10.575 7.15579L 8.61042 5.04184L 8.87395 3.16418L 11.768 1.98642C 11.7825 1.98068 11.7935 1.97019 11.807 1.96294C 12.045 2.12681 12.2773 2.30016 12.4959 2.49399C 12.6043 2.58467 12.7114 2.68408 12.8261 2.80123ZM 3.90816 10.7975L 1.19096 10.1293C 0.981888 9.54477 0.8495 8.92779 0.805787 8.29233L 0.79105 8.03855C 0.77931 7.70008 0.796545 7.36412 0.831016 7.03365L 3.29518 6.03L 4.89757 6.79685L 5.23678 9.61521L 3.90816 10.7975ZM 4.12223 1.78984C 4.82913 1.34797 5.60072 1.04222 6.41728 0.875366L 8.15081 2.92738L 7.87255 4.9097L 5.23978 6.12966L 3.62465 5.35682L 3.40334 2.34137C 3.40259 2.32988 3.39734 2.31989 3.39559 2.30865C 3.6284 2.11906 3.87094 1.94446 4.12223 1.78984ZM 4.58434 14.0362L 4.38825 11.3737L 5.72012 10.189L 8.5842 10.7547L 9.19543 12.3606L 7.66722 14.8238C 7.54857 14.8213 7.42992 14.8161 7.31227 14.8071C 6.34584 14.7386 5.42962 14.4778 4.58434 14.0362ZM 12.899 12.6789L 9.83089 11.9245L 9.26687 10.4423L 10.6862 7.89816L 12.7761 7.69459L 14.5741 9.82403C 14.2551 10.8906 13.6804 11.8713 12.899 12.6789Z"/>
        <path id="path5_fill" d="M 5.42618 45L 5.42618 20.232L 16.9102 20.232L 16.9102 24.588L 10.3942 24.588L 10.3942 30.888L 16.1182 30.888L 16.1182 35.244L 10.3942 35.244L 10.3942 45L 5.42618 45ZM 30.8998 44.676C 30.3958 44.844 29.7358 44.988 28.9198 45.108C 28.1278 45.228 27.3718 45.288 26.6518 45.288C 24.3958 45.288 22.7398 44.916 21.6838 44.172C 20.6278 43.428 19.9198 42.192 19.5598 40.464C 19.2238 38.736 19.0558 36.12 19.0558 32.616C 19.0558 29.136 19.2358 26.532 19.5958 24.804C 19.9558 23.052 20.6638 21.804 21.7198 21.06C 22.7998 20.316 24.4438 19.944 26.6518 19.944C 27.4438 19.944 28.2238 20.004 28.9918 20.124C 29.7838 20.22 30.3958 20.352 30.8278 20.52L 30.8278 24.552C 29.4358 24.384 28.3798 24.3 27.6598 24.3C 26.4358 24.3 25.5838 24.468 25.1038 24.804C 24.6478 25.116 24.3478 25.8 24.2038 26.856C 24.0838 27.912 24.0238 29.832 24.0238 32.616C 24.0238 35.4 24.0838 37.32 24.2038 38.376C 24.3478 39.432 24.6478 40.128 25.1038 40.464C 25.5838 40.776 26.4358 40.932 27.6598 40.932C 28.7638 40.932 29.8438 40.848 30.8998 40.68L 30.8998 44.676ZM 33.6173 40.644C 35.3933 40.836 36.9893 40.932 38.4053 40.932C 39.5093 40.932 40.3133 40.848 40.8173 40.68C 41.3213 40.512 41.6573 40.188 41.8253 39.708C 42.0173 39.204 42.1133 38.412 42.1133 37.332C 42.1133 36.204 42.0173 35.4 41.8253 34.92C 41.6333 34.416 41.2853 34.092 40.7813 33.948C 40.2773 33.78 39.4613 33.696 38.3333 33.696C 36.8933 33.696 35.3693 33.804 33.7613 34.02L 33.7613 20.232L 46.0373 20.232L 46.0373 24.588L 38.3333 24.588L 38.3333 29.592C 38.6453 29.52 39.0653 29.46 39.5933 29.412C 40.1213 29.364 40.6253 29.34 41.1053 29.34C 43.3853 29.34 44.9453 29.964 45.7853 31.212C 46.6493 32.436 47.0813 34.308 47.0813 36.828C 47.0813 38.94 46.8773 40.596 46.4693 41.796C 46.0613 42.996 45.3293 43.884 44.2733 44.46C 43.2173 45.012 41.7053 45.288 39.7373 45.288C 38.8493 45.288 37.8293 45.228 36.6773 45.108C 35.5253 44.988 34.5053 44.832 33.6173 44.64L 33.6173 40.644Z"/>
    </defs>
</svg>
