<?xml version="1.0" encoding="utf-8"?>
<!-- Generator: Adobe Illustrator 19.1.0, SVG Export Plug-In . SVG Version: 6.00 Build 0)  -->
<svg version="1.1" id="Calque_1" xmlns="http://www.w3.org/2000/svg" xmlns:xlink="http://www.w3.org/1999/xlink" x="0px" y="0px"
	 viewBox="-162 234 42 37" style="enable-background:new -162 234 42 37;" xml:space="preserve">
<style type="text/css">
	.st0{fill:#F2C94C;}
	.st1{fill:#FFFFFF;}
</style>
<g id="Canvas">
	<g id="Rectangle">
		<rect x="-162" y="234" class="st0" width="42" height="37"/>
	</g>
	<g id="eye">
		<g id="Group">
			<g id="Group_2">
				<g id="Vector">
					<path class="st1" d="M-125.2,252.8c-0.3-0.3-7.2-7.8-15.8-7.8s-15.5,7.5-15.8,7.8c-0.3,0.4-0.3,0.9,0,1.3
						c0.3,0.3,7.2,7.8,15.8,7.8c8.6,0,15.5-7.5,15.8-7.8C-124.9,253.7-124.9,253.2-125.2,252.8z M-141,260c-3.6,0-6.6-2.9-6.6-6.6
						s2.9-6.6,6.6-6.6s6.6,2.9,6.6,6.6S-137.4,260-141,260z"/>
				</g>
			</g>
		</g>
		<g id="Group_3">
			<g id="Group_4">
				<g id="Vector_2">
					<path class="st1" d="M-140.1,251.6c0-0.9,0.5-1.8,1.2-2.3c-0.6-0.3-1.4-0.5-2.1-0.5c-2.6,0-4.7,2.1-4.7,4.7s2.1,4.7,4.7,4.7
						c2.3,0,4.2-1.7,4.6-3.9C-138.3,254.8-140.1,253.4-140.1,251.6z"/>
				</g>
			</g>
		</g>
	</g>
</g>
</svg>
