<svg width="42" height="37" viewBox="0 0 42 37" version="1.1" xmlns="http://www.w3.org/2000/svg" xmlns:xlink="http://www.w3.org/1999/xlink">
    <g id="Canvas" fill="none">
        <g id="Rectangle">
            <rect width="42" height="37" fill="#C4C4C4"/>
        </g>
        <g id="Group">
            <g id="Vector">
                <path d="M 30.5419 0.00663972L 14.8473 0.00663972L 14.8473 2.35822L 12.6341 2.35822L 12.6341 4.55915e-07C 9.17586 0.407515 6.19544 2.83863 5.07526 6.10788C 4.57797 5.82389 4.01428 5.6608 3.40066 5.6608C 1.5194 5.6608 0 7.18587 0 9.06713C 0 10.9484 1.52797 12.4735 3.40924 12.4735C 4.02286 12.4735 4.59955 12.3102 5.09684 12.0264C 6.32658 15.6156 9.7282 18.1968 13.7342 18.1968C 18.7544 18.1968 22.827 14.1446 22.8626 9.13284L 30.8448 7.18269C 31.5843 7.00355 32 6.57723 32 5.53976L 32 1.25159C 32 0.490788 31.3027 0.00663972 30.5419 0.00663972Z" transform="translate(5 13.5005)" fill="#595555"/>
            </g>
            <g id="Vector_2">
                <path d="M 1.10662 4.56483C 1.71776 4.56483 2.21325 4.06934 2.21325 3.4582L 2.21325 1.10663C 2.21325 0.495491 1.71776 -2.53286e-08 1.10662 -2.53286e-08C 0.495491 -2.53286e-08 -5.06573e-08 0.495491 -5.06573e-08 1.10663L -5.06573e-08 3.4582C -5.06573e-08 4.06934 0.495491 4.56483 1.10662 4.56483Z" transform="translate(17.6341 5)" fill="#595555"/>
            </g>
            <g id="Vector_3">
                <path d="M 1.98695 3.55202C 2.20315 3.76809 2.48617 3.87613 2.76947 3.87613C 3.05276 3.87613 3.33592 3.76809 3.55199 3.55202C 3.98413 3.11975 3.98413 2.41912 3.55199 1.98684L 1.88915 0.323999C 1.45687 -0.108 0.756378 -0.108 0.324103 0.323999C -0.108034 0.756274 -0.108034 1.45691 0.324103 1.88918L 1.98695 3.55202Z" transform="translate(11.9551 7.32941)" fill="#595555"/>
            </g>
            <g id="Vector_4">
                <path d="M 1.10661 3.87627C 1.3899 3.87627 1.6732 3.76823 1.88913 3.55202L 3.55183 1.88918C 3.98397 1.45704 3.98397 0.756274 3.5517 0.324137C 3.11942 -0.108138 2.41865 -0.108 1.98665 0.324276L 0.324085 1.98712C -0.108052 2.41926 -0.108052 3.11989 0.324224 3.55202C 0.540292 3.76837 0.823311 3.87627 1.10661 3.87627Z" transform="translate(21.6387 7.32927)" fill="#595555"/>
            </g>
        </g>
    </g>
</svg>

