<?xml version="1.0" encoding="utf-8"?>
<!-- Generator: Adobe Illustrator 19.1.0, SVG Export Plug-In . SVG Version: 6.00 Build 0)  -->
<svg version="1.1" id="Calque_1" xmlns="http://www.w3.org/2000/svg" xmlns:xlink="http://www.w3.org/1999/xlink" x="0px" y="0px"
	 viewBox="-162 234 42 37" style="enable-background:new -162 234 42 37;" xml:space="preserve">
<style type="text/css">
	.st0{fill:#F2C94C;}
	.st1{fill:#FFFFFF;}
</style>
<g id="Canvas">
	<g id="Rectangle">
		<rect x="-162" y="234" class="st0" width="42" height="37"/>
	</g>
	<g id="syringe-with-medicine">
		<g id="Group">
			<g id="Vector">
				<path class="st1" d="M-125.3,244.8l-7.4-7.4c-0.5-0.5-1.2-0.5-1.6,0c-0.5,0.5-0.5,1.2,0,1.6l2.9,2.9l-2.8,2.8l-2.6-2.6
					c-0.3-0.3-0.7-0.4-1.1-0.4c-0.4,0-0.8,0.2-1.1,0.4l-12.5,12.5c-0.8,0.8-1.2,2-1.1,3.1l0.6,4.8l-4.6,4.6c-0.5,0.5-0.5,1.2,0,1.6
					c0.2,0.2,0.5,0.3,0.8,0.3s0.6-0.1,0.8-0.3l4.7-4.7l4.7,0.7c1.2,0.2,2.3-0.2,3.2-1.1l12.4-12.5c0.6-0.6,0.6-1.5,0-2.1l-2.6-2.6
					l2.8-2.8l2.9,2.9c0.2,0.2,0.5,0.3,0.8,0.3c0.3,0,0.6-0.1,0.8-0.3C-124.9,246-124.9,245.2-125.3,244.8z M-149.6,260.9
					c-0.3,0.3-0.9,0.3-1.2,0c-0.3-0.3-0.3-0.9,0-1.2c0.3-0.3,0.9-0.3,1.2,0C-149.2,260-149.2,260.6-149.6,260.9z M-145.1,254.3
					l-3.4,3.4c-0.2,0.2-0.5,0.3-0.8,0.3c-0.3,0-0.6-0.1-0.8-0.3c-0.5-0.5-0.5-1.2,0-1.6l3.4-3.4c0.5-0.5,1.2-0.5,1.6,0
					C-144.7,253.1-144.7,253.9-145.1,254.3z M-144.6,250.8l0.2-0.2l1,1c0.1,0.1,0.3,0.2,0.4,0.2c0.2,0,0.3-0.1,0.4-0.2
					c0.2-0.2,0.2-0.6,0-0.8l-1-1l0.6-0.6l1,1c0.1,0.1,0.3,0.2,0.4,0.2c0.1,0,0.3-0.1,0.4-0.2c0.2-0.2,0.2-0.6,0-0.8l-1-1l0.6-0.6
					l1,1c0.1,0.1,0.3,0.2,0.4,0.2c0.1,0,0.3-0.1,0.4-0.2c0.2-0.2,0.2-0.6,0-0.8l-1-1l0.6-0.6l1,1c0.1,0.1,0.3,0.2,0.4,0.2
					c0.2,0,0.3-0.1,0.4-0.2c0.2-0.2,0.2-0.6,0-0.8l-1-1l0.7-0.7c0.4-0.4,0.9-0.4,1.3,0l1.4,1.4l-6.6,6.6L-144.6,250.8z
					 M-132.9,249.4c0.2,0.2,0.3,0.4,0.3,0.6c0,0.2-0.1,0.5-0.3,0.6l-5.9,5.9l-2.1-2l6.5-6.5L-132.9,249.4z"/>
			</g>
		</g>
	</g>
</g>
</svg>
