<?xml version="1.0" encoding="utf-8"?>
<!-- Generator: Adobe Illustrator 19.1.0, SVG Export Plug-In . SVG Version: 6.00 Build 0)  -->
<svg version="1.1" id="Calque_1" xmlns="http://www.w3.org/2000/svg" xmlns:xlink="http://www.w3.org/1999/xlink" x="0px" y="0px"
	 viewBox="-162 234 42 37" style="enable-background:new -162 234 42 37;" xml:space="preserve">
<style type="text/css">
	.st0{fill:#F2C94C;}
	.st1{fill:#FFFFFF;}
</style>
<g id="Canvas">
	<g id="Rectangle">
		<rect x="-162" y="234" class="st0" width="42" height="37"/>
	</g>
	<g id="voodoo-puppet__x28_1_x29_">
		<g id="Vector">
			<path class="st1" d="M-125,249.2c0-2.3-2.2-4.3-4.7-4.3h-0.1l1.3-3.8c0.3-0.7-0.2-1.5-0.9-1.8c-0.8-0.2-1.6,0.2-1.8,0.9l-1.6,4.7
				h-1.6c0.1-0.4,0.2-1,0.2-1.5c0-3.5-3-6.4-6.6-6.4c-3.7,0-6.6,2.9-6.6,6.4c0,0.5,0.1,1.1,0.2,1.5h-0.8l-5.1-5
				c-0.6-0.5-1.5-0.6-2.1,0s-0.6,1.4,0,2l3.1,3c-2.5,0-4.6,2-4.6,4.3c0,2.3,2.2,4.3,4.7,4.3h1.1c-0.3,4.1-0.3,11.6,2.2,14.3
				c0.9,1,1.9,1.1,2.5,1.1c3,0,3.8-2.8,4.3-4.6c0.2-0.8,0.4-1.5,0.7-2c0.2-0.4,0.4-0.4,0.5-0.4c0.2,0,0.3,0,0.5,0.4
				c0.3,0.5,0.5,1.3,0.7,2c0.5,1.8,1.3,4.6,4.3,4.6c0.7,0,1.7-0.2,2.5-1.2c1.1-1.2,1.7-3.4,2.1-5.8l1.1,0.8c0.3,0.2,0.6,0.3,0.9,0.3
				c0.4,0,0.9-0.2,1.2-0.6c0.5-0.6,0.4-1.5-0.3-2l-2.6-1.9c0.1-1.9,0-3.8-0.1-5.2h1.1C-127.2,253.5-125,251.6-125,249.2z
				 M-141,239.8c2.1,0,3.7,1.6,3.7,3.6c0,2-1.7,3.6-3.7,3.6c-2.1,0-3.7-1.6-3.7-3.6C-144.7,241.4-143.1,239.8-141,239.8z
				 M-135.5,266.2c-0.5,0-0.9-0.5-1.5-2.5c-0.3-0.9-0.5-1.9-1-2.7c-0.9-1.4-2.1-1.8-3-1.8c-0.9,0-2.2,0.3-3,1.8
				c-0.5,0.8-0.8,1.8-1,2.7c-0.6,2-0.9,2.5-1.5,2.6c-1.3,0-1.8-4.8-1.9-8.5l3.1-1.4l0.3,0.6c0.3,0.5,0.8,0.8,1.3,0.8
				c0.2,0,0.4,0,0.6-0.1c0.7-0.3,1-1.2,0.7-1.9l-0.3-0.5l1-0.5c0.7-0.3,1-1.2,0.7-1.9c-0.3-0.7-1.2-1-1.9-0.7l-1.1,0.5l-0.2-0.3
				c-0.4-0.7-1.2-1-2-0.6c-0.7,0.3-1,1.2-0.7,1.9l0.1,0.3l-1.7,0.8c0-0.8,0.1-1.6,0.2-2.3c0-0.4-0.1-0.8-0.4-1.1
				c-0.3-0.3-0.7-0.5-1.1-0.5h-2.7c-1,0-1.8-0.7-1.8-1.5c0-0.8,0.8-1.5,1.8-1.5h6.4c1.2,1.3,3,2.1,4.9,2.1c1.9,0,3.7-0.8,4.9-2.1
				h6.4c1,0,1.8,0.7,1.8,1.5c0,0.8-0.8,1.5-1.8,1.5h-2.7c-0.8,0-1.5,0.6-1.5,1.4c0,0.1,0,0.2,0,0.3c0.2,1.3,0.3,2.8,0.3,4.2l-1.4-1
				c-0.6-0.5-1.6-0.3-2,0.3c-0.5,0.6-0.4,1.5,0.3,2l3.1,2.2C-133.8,262.8-134.2,266.1-135.5,266.2z"/>
		</g>
	</g>
</g>
</svg>
